<svg width="300" height="56" viewBox="0 0 622 56" fill="none" xmlns="http://www.w3.org/2000/svg">
<path d="M0 12.0006V21.4058H9.13637V44.1582H22.1022V21.4058H30.9703V12.0006H0ZM39.9949 12.0006L27.7233 44.1582H40.129L46.6684 25.0565L53.3414 44.1582H65.8819L53.4762 12.0006H39.9949ZM63.0155 12.0006V21.4058H72.1748V44.1582H85.1183V21.4058H94.0082V12.0006H63.0155ZM102.899 12.0006L90.7394 44.1582H103.145L109.684 25.0565L116.358 44.1582H128.92L116.492 12L102.899 12.0006Z" fill="white"/>
<path d="M149.518 45H146.298L158.536 11.3562H161.822L174.06 45H170.841L160.294 15.3481H160.064L149.518 45ZM151.834 32.1043H168.524V34.8642H151.834V32.1043ZM189.683 45H179.827V11.3562H190.275C193.483 11.3562 196.227 12.0243 198.505 13.3604C200.794 14.6965 202.546 16.6131 203.762 19.1101C204.977 21.6071 205.585 24.6024 205.585 28.096C205.585 31.6224 204.961 34.6506 203.712 37.1804C202.475 39.6994 200.668 41.6323 198.291 42.9794C195.926 44.3265 193.056 45 189.683 45ZM182.899 42.2402H189.502C192.394 42.2402 194.814 41.6707 196.763 40.5317C198.713 39.3927 200.175 37.7664 201.15 35.6527C202.124 33.539 202.612 31.0201 202.612 28.096C202.601 25.1938 202.119 22.6968 201.166 20.605C200.224 18.5132 198.822 16.9088 196.961 15.7917C195.11 14.6746 192.821 14.1161 190.094 14.1161H182.899V42.2402ZM211.499 11.3562L222.013 41.0081H222.308L232.822 11.3562H236.042L223.803 45H220.518L208.279 11.3562H211.499ZM238.966 45H235.746L247.985 11.3562H251.27L263.509 45H260.289L249.743 15.3481H249.513L238.966 45ZM241.282 32.1043H257.973V34.8642H241.282V32.1043ZM295.477 11.3562V45H292.487L272.61 16.8266H272.347V45H269.275V11.3562H272.248L292.192 39.5625H292.454V11.3562H295.477ZM330.772 21.8699H327.683C327.453 20.72 327.037 19.6576 326.435 18.6829C325.844 17.6973 325.099 16.8376 324.201 16.1038C323.303 15.37 322.284 14.8005 321.145 14.3953C320.006 13.9901 318.774 13.7875 317.449 13.7875C315.324 13.7875 313.386 14.3406 311.634 15.4467C309.892 16.5528 308.496 18.1792 307.445 20.3257C306.404 22.4613 305.884 25.0788 305.884 28.1781C305.884 31.2994 306.404 33.9278 307.445 36.0634C308.496 38.199 309.892 39.8198 311.634 40.9259C313.386 42.0211 315.324 42.5687 317.449 42.5687C318.774 42.5687 320.006 42.3661 321.145 41.9609C322.284 41.5557 323.303 40.9917 324.201 40.2688C325.099 39.5351 325.844 38.6754 326.435 37.6897C327.037 36.704 327.453 35.6363 327.683 34.4863H330.772C330.498 36.0305 329.983 37.4707 329.228 38.8068C328.483 40.1319 327.53 41.2928 326.369 42.2894C325.219 43.2861 323.894 44.0636 322.394 44.6222C320.893 45.1807 319.245 45.46 317.449 45.46C314.623 45.46 312.116 44.7536 309.925 43.3408C307.735 41.9171 306.015 39.9129 304.767 37.3283C303.529 34.7437 302.911 31.6936 302.911 28.1781C302.911 24.6626 303.529 21.6125 304.767 19.0279C306.015 16.4433 307.735 14.4446 309.925 13.0318C312.116 11.6081 314.623 10.8962 317.449 10.8962C319.245 10.8962 320.893 11.1755 322.394 11.7341C323.894 12.2816 325.219 13.0592 326.369 14.0668C327.53 15.0634 328.483 16.2243 329.228 17.5494C329.983 18.8746 330.498 20.3148 330.772 21.8699ZM337.988 45V11.3562H357.504V14.1161H341.06V26.7818H356.469V29.5416H341.06V42.2402H357.832V45H337.988ZM375.311 45H365.455V11.3562H375.903C379.111 11.3562 381.855 12.0243 384.133 13.3604C386.422 14.6965 388.174 16.6131 389.39 19.1101C390.605 21.6071 391.213 24.6024 391.213 28.096C391.213 31.6224 390.589 34.6506 389.34 37.1804C388.103 39.6994 386.296 41.6323 383.919 42.9794C381.554 44.3265 378.684 45 375.311 45ZM368.527 42.2402H375.131C378.022 42.2402 380.442 41.6707 382.392 40.5317C384.341 39.3927 385.803 37.7664 386.778 35.6527C387.752 33.539 388.24 31.0201 388.24 28.096C388.229 25.1938 387.747 22.6968 386.794 20.605C385.852 18.5132 384.45 16.9088 382.589 15.7917C380.738 14.6746 378.449 14.1161 375.722 14.1161H368.527V42.2402ZM429.937 19.7672C429.751 17.8944 428.924 16.405 427.457 15.2988C425.989 14.1927 424.144 13.6397 421.921 13.6397C420.354 13.6397 418.974 13.908 417.781 14.4446C416.598 14.9812 415.667 15.726 414.988 16.6788C414.32 17.6206 413.986 18.6939 413.986 19.8986C413.986 20.7857 414.178 21.5633 414.561 22.2313C414.944 22.8994 415.459 23.4743 416.105 23.9562C416.762 24.4271 417.485 24.8323 418.274 25.1719C419.073 25.5114 419.878 25.7961 420.688 26.0261L424.237 27.0446C425.31 27.3403 426.383 27.7181 427.457 28.1781C428.53 28.6381 429.51 29.2185 430.397 29.9194C431.295 30.6094 432.013 31.4582 432.549 32.4657C433.097 33.4623 433.371 34.6615 433.371 36.0634C433.371 37.8595 432.905 39.4748 431.974 40.9095C431.043 42.3442 429.707 43.4832 427.966 44.3265C426.225 45.1588 424.138 45.575 421.707 45.575C419.418 45.575 417.43 45.1971 415.744 44.4415C414.057 43.6748 412.732 42.618 411.768 41.2709C410.804 39.9239 410.262 38.3632 410.142 36.5891H413.296C413.406 37.9142 413.844 39.0368 414.61 39.9567C415.377 40.8767 416.373 41.5776 417.6 42.0595C418.827 42.5304 420.196 42.7658 421.707 42.7658C423.383 42.7658 424.872 42.4866 426.175 41.928C427.489 41.3585 428.519 40.57 429.264 39.5625C430.019 38.5439 430.397 37.3612 430.397 36.0141C430.397 34.8751 430.101 33.9223 429.51 33.1557C428.919 32.3781 428.092 31.7265 427.03 31.2008C425.978 30.6751 424.757 30.2097 423.366 29.8044L419.341 28.6217C416.702 27.8331 414.654 26.7434 413.197 25.3526C411.741 23.9617 411.013 22.1875 411.013 20.03C411.013 18.223 411.494 16.635 412.458 15.266C413.433 13.8861 414.747 12.8128 416.401 12.0462C418.065 11.2686 419.933 10.8798 422.003 10.8798C424.094 10.8798 425.945 11.2631 427.555 12.0298C429.165 12.7964 430.441 13.8532 431.383 15.2003C432.336 16.5364 432.845 18.0587 432.911 19.7672H429.937ZM437.609 11.3562H441.157L451.129 27.3239H451.425L461.396 11.3562H464.944L452.804 30.4287V45H449.749V30.4287L437.609 11.3562ZM488.982 19.7672C488.796 17.8944 487.969 16.405 486.502 15.2988C485.034 14.1927 483.189 13.6397 480.966 13.6397C479.399 13.6397 478.02 13.908 476.826 14.4446C475.643 14.9812 474.712 15.726 474.033 16.6788C473.365 17.6206 473.031 18.6939 473.031 19.8986C473.031 20.7857 473.223 21.5633 473.606 22.2313C473.989 22.8994 474.504 23.4743 475.15 23.9562C475.807 24.4271 476.53 24.8323 477.319 25.1719C478.118 25.5114 478.923 25.7961 479.733 26.0261L483.282 27.0446C484.355 27.3403 485.428 27.7181 486.502 28.1781C487.575 28.6381 488.555 29.2185 489.442 29.9194C490.34 30.6094 491.058 31.4582 491.594 32.4657C492.142 33.4623 492.416 34.6615 492.416 36.0634C492.416 37.8595 491.95 39.4748 491.019 40.9095C490.088 42.3442 488.752 43.4832 487.011 44.3265C485.27 45.1588 483.183 45.575 480.752 45.575C478.463 45.575 476.475 45.1971 474.789 44.4415C473.102 43.6748 471.777 42.618 470.813 41.2709C469.849 39.9239 469.307 38.3632 469.187 36.5891H472.341C472.451 37.9142 472.889 39.0368 473.655 39.9567C474.422 40.8767 475.418 41.5776 476.645 42.0595C477.872 42.5304 479.241 42.7658 480.752 42.7658C482.428 42.7658 483.917 42.4866 485.22 41.928C486.534 41.3585 487.564 40.57 488.309 39.5625C489.064 38.5439 489.442 37.3612 489.442 36.0141C489.442 34.8751 489.146 33.9223 488.555 33.1557C487.964 32.3781 487.137 31.7265 486.075 31.2008C485.023 30.6751 483.802 30.2097 482.411 29.8044L478.386 28.6217C475.747 27.8331 473.699 26.7434 472.242 25.3526C470.786 23.9617 470.058 22.1875 470.058 20.03C470.058 18.223 470.539 16.635 471.503 15.266C472.478 13.8861 473.792 12.8128 475.446 12.0462C477.111 11.2686 478.978 10.8798 481.048 10.8798C483.139 10.8798 484.99 11.2631 486.6 12.0298C488.21 12.7964 489.486 13.8532 490.428 15.2003C491.381 16.5364 491.89 18.0587 491.956 19.7672H488.982ZM497.771 14.1161V11.3562H522.166V14.1161H511.504V45H508.433V14.1161H497.771ZM529.082 45V11.3562H548.598V14.1161H532.154V26.7818H547.563V29.5416H532.154V42.2402H548.927V45H529.082ZM556.549 11.3562H560.097L572.303 40.6631H572.599L584.805 11.3562H588.353V45H585.462V17.8451H585.199L573.847 45H571.055L559.703 17.8451H559.44V45H556.549V11.3562ZM615.565 19.7672C615.379 17.8944 614.552 16.405 613.085 15.2988C611.617 14.1927 609.772 13.6397 607.549 13.6397C605.983 13.6397 604.603 13.908 603.409 14.4446C602.226 14.9812 601.295 15.726 600.616 16.6788C599.948 17.6206 599.614 18.6939 599.614 19.8986C599.614 20.7857 599.806 21.5633 600.189 22.2313C600.572 22.8994 601.087 23.4743 601.733 23.9562C602.39 24.4271 603.113 24.8323 603.902 25.1719C604.701 25.5114 605.506 25.7961 606.317 26.0261L609.865 27.0446C610.938 27.3403 612.011 27.7181 613.085 28.1781C614.158 28.6381 615.138 29.2185 616.025 29.9194C616.923 30.6094 617.641 31.4582 618.177 32.4657C618.725 33.4623 618.999 34.6615 618.999 36.0634C618.999 37.8595 618.533 39.4748 617.602 40.9095C616.671 42.3442 615.335 43.4832 613.594 44.3265C611.853 45.1588 609.766 45.575 607.335 45.575C605.046 45.575 603.058 45.1971 601.372 44.4415C599.685 43.6748 598.36 42.618 597.396 41.2709C596.433 39.9239 595.89 38.3632 595.77 36.5891H598.924C599.034 37.9142 599.472 39.0368 600.238 39.9567C601.005 40.8767 602.002 41.5776 603.228 42.0595C604.455 42.5304 605.824 42.7658 607.335 42.7658C609.011 42.7658 610.5 42.4866 611.803 41.928C613.118 41.3585 614.147 40.57 614.892 39.5625C615.647 38.5439 616.025 37.3612 616.025 36.0141C616.025 34.8751 615.73 33.9223 615.138 33.1557C614.547 32.3781 613.72 31.7265 612.658 31.2008C611.606 30.6751 610.385 30.2097 608.994 29.8044L604.969 28.6217C602.33 27.8331 600.282 26.7434 598.826 25.3526C597.369 23.9617 596.641 22.1875 596.641 20.03C596.641 18.223 597.123 16.635 598.086 15.266C599.061 13.8861 600.375 12.8128 602.029 12.0462C603.694 11.2686 605.561 10.8798 607.631 10.8798C609.723 10.8798 611.573 11.2631 613.183 12.0298C614.793 12.7964 616.069 13.8532 617.011 15.2003C617.964 16.5364 618.473 18.0587 618.539 19.7672H615.565Z" fill="white"/>
</svg>
