<svg width="278" height="44" viewBox="0 0 278 44" fill="none" xmlns="http://www.w3.org/2000/svg">
<path d="M164.465 5.34872C169.736 4.45912 175.574 4.75936 181.056 4.13664C181.022 6.40512 179.988 8.618 179.466 10.8754L179.977 11.209L193.299 11.12L191.82 16.7356L178.02 16.958C176.13 22.5625 174.684 28.3782 173.072 34.1162C173.094 35.584 174.262 36.4402 175.474 37.0741C179.677 37.0741 184.603 37.719 188.295 36.2623L186.549 42.6674L163.62 42.8454C160.495 42.3561 157.304 39.4871 156.681 36.5737L156.814 32.4482C159.472 23.4966 161.874 14.367 164.465 5.34872ZM111.278 11.7983C115.437 17.6363 119.262 23.5522 122.72 29.6904C116.26 34.2941 109.699 38.6754 103.171 43.0233L103.182 43.3569L113.924 43.179L126.09 35.0058C127.913 37.5634 129.67 40.1877 130.649 43.1122L151.299 42.901C150.854 42.7898 150.487 42.256 150.131 42.0002L140.079 25.5538L160.473 11.6649L160.45 11.3313L148.152 11.7316C145.083 15.5124 140.423 17.3806 136.565 20.1606C134.874 17.4028 132.55 14.9008 132.128 11.6538L111.278 11.7983ZM244.684 10.9532L244.929 12.5434L237.534 39.7874L235.733 42.4784H255.248L254.837 40.2989L259.619 21.8842C259.819 20.8166 260.72 19.738 261.776 19.2598C265.835 19.3154 271.873 17.9588 275.598 20.1606L278 11.0199C271.895 11.9651 263.644 8.26216 260.119 14.7006C259.541 13.6442 259.863 12.2431 259.774 10.9643L244.684 10.9532ZM52.1083 0L12.7991 0.1668L12.8658 3.2248L2.78 38.8199L0 43.9018L42.0002 43.8795C45.8033 43.9685 49.0503 42.7786 50.785 39.7762C52.0416 35.3616 54.3101 31.2027 53.7986 26.2877C53.187 24.375 51.7414 22.607 49.9288 21.4505C51.708 20.9501 53.4761 20.3162 54.8772 18.9596C57.8574 15.1899 58.7692 10.4528 58.8915 5.80464C58.2243 2.95792 55.1886 0.48928 52.1083 0ZM30.8358 7.27248L41.144 7.36144C42.5785 8.13984 42.0558 10.1414 41.7222 11.209C40.8215 13.3551 40.8771 16.213 38.7754 17.6474L26.9438 17.6808L30.8358 7.27248ZM24.8754 24.8977L35.8286 24.8532C37.341 25.4982 36.9629 27.5554 36.5514 28.7007C35.1614 31.1916 36.7627 35.0169 33.8048 36.3958L21.8842 36.3846C22.3846 32.5816 23.8746 28.7007 24.8754 24.8977ZM98.6122 11.9985L64.1402 12.1097L61.7049 17.9254C70.0115 16.7245 78.9965 17.5251 87.3142 17.3138C88.037 17.6474 88.4151 18.3591 88.493 19.093C88.1594 20.0938 88.2483 21.4171 87.0474 21.9731L64.3626 22.4735L60.415 24.3194C57.1902 27.6332 56.4896 31.9033 56.2116 36.3624C56.4006 38.9534 58.2354 41.3219 60.6151 42.6786C65.8971 44.2465 73.303 43.4792 79.5525 43.3013C80.987 42.9454 81.9322 41.5221 82.6105 40.3767C83.1331 41.3108 83.5223 42.3561 83.8337 43.3569L100.058 43.4236L99.5351 41.2441L104.306 23.6078C105.051 21.3282 105.773 18.1367 104.15 16.1018C103.06 14.0557 100.769 12.7546 98.6122 11.9985ZM85.8019 28.1558L83.4 36.7071L82.3547 37.5189L74.1593 37.6523C70.6342 35.7174 74.0481 31.8032 74.3594 29.0121L75.6938 28.1892L85.8019 28.1558ZM233.442 11.2757L202.328 11.12C199.982 11.5537 197.858 12.9103 196.413 14.923C194.255 21.6062 192.243 28.3671 191.03 35.4172C191.575 38.6754 194.2 41.8779 197.78 42.623L231.941 42.534L234.599 35.9621L232.897 36.6738L209.479 36.8517L208.255 36.2734C206.376 34.105 208.611 31.881 208.856 29.6793L237.034 29.2345C237.801 24.7642 240.926 20.3274 238.635 15.5124C237.679 13.5886 235.522 11.8317 233.442 11.2757ZM213.537 17.047L221.088 16.9246C221.788 17.1026 222.589 17.7586 222.834 18.4926C222.778 20.0827 222.467 21.6173 221.833 23.0851L210.735 23.2742C211.691 21.1947 211.347 18.3369 213.537 17.047Z" fill="white"/>
</svg>
