<svg width="120" height="31" viewBox="0 0 181 31" fill="none" xmlns="http://www.w3.org/2000/svg">
<path d="M169.105 7.98793H167.423V1.40963H165.247V0H171.281V1.40963H169.105V7.98793V7.98793Z" fill="white" style="fill:white;fill-opacity:1;"/>
<path d="M175.881 7.98793L173.953 1.73113H173.903C173.977 3.01711 174.002 3.85795 174.002 4.27836V7.98793H172.493V0H174.793L176.673 6.10842H176.698L178.701 0H181.001V7.98793H179.418V4.2289C179.418 4.05579 179.418 3.83322 179.418 3.61064C179.418 3.38807 179.443 2.76981 179.492 1.75586H179.443L177.439 7.98793H175.881Z" fill="white" style="fill:white;fill-opacity:1;"/>
<path d="M13.1319 6.2589C10.9061 6.2589 9.17499 7.09974 7.93847 8.78141C6.70195 10.4631 6.10842 12.7877 6.10842 15.7801C6.10842 22.0122 8.45781 25.1282 13.1319 25.1282C15.0856 25.1282 17.4844 24.6336 20.2542 23.6444V28.6152C17.9543 29.5797 15.4071 30.0496 12.5631 30.0496C8.50727 30.0496 5.39123 28.8131 3.23969 26.34C1.08814 23.867 0 20.3305 0 15.7059C0 12.7877 0.519339 10.2405 1.58275 8.06422C2.64616 5.88795 4.15471 4.20628 6.13315 3.04395C8.11158 1.88162 10.4362 1.28809 13.1071 1.28809C15.8275 1.28809 18.5478 1.95581 21.2929 3.26652L19.4134 8.11368C18.3747 7.61908 17.3113 7.17393 16.2479 6.80297C15.1845 6.45675 14.1458 6.2589 13.1319 6.2589Z" fill="white" style="fill:white;fill-opacity:1;"/>
<path d="M45.1848 18.9708C45.1848 22.4578 44.2698 25.1782 42.4397 27.1319C40.6097 29.0856 38.0377 30.0748 34.7733 30.0748C32.7207 30.0748 30.9153 29.6296 29.3326 28.7146C27.7746 27.8243 26.5628 26.5136 25.7219 24.8319C24.8811 23.1503 24.4607 21.1966 24.4607 18.9461C24.4607 15.4591 25.3757 12.7388 27.2058 10.8098C29.0358 8.88082 31.5831 7.8916 34.8969 7.8916C36.9496 7.8916 38.7549 8.33675 40.3376 9.22705C41.8956 10.1173 43.1074 11.4033 43.9483 13.0603C44.7644 14.7667 45.1848 16.7204 45.1848 18.9708ZM30.396 18.9708C30.396 21.0977 30.7422 22.6804 31.4347 23.7685C32.1271 24.8567 33.2647 25.4007 34.8227 25.4007C36.3808 25.4007 37.4936 24.8567 38.1861 23.7933C38.8785 22.7051 39.2 21.1224 39.2 18.9956C39.2 16.8687 38.8538 15.286 38.1613 14.2226C37.4689 13.1592 36.356 12.6398 34.7733 12.6398C33.2153 12.6398 32.1024 13.1592 31.4099 14.2226C30.7175 15.286 30.396 16.844 30.396 18.9708Z" fill="white" style="fill:white;fill-opacity:1;"/>
<path d="M61.9504 7.91699C62.7418 7.91699 63.4095 7.96645 63.9288 8.09011L63.4837 13.5555C63.0138 13.4319 62.445 13.3577 61.7526 13.3577C59.8978 13.3577 58.4387 13.8276 57.4 14.7921C56.3613 15.7565 55.842 17.092 55.842 18.7984V29.6798H50.0056V8.31268H54.4324L55.2979 11.8986H55.5947C56.2624 10.7115 57.1527 9.72231 58.2903 9.00513C59.3784 8.28795 60.615 7.91699 61.9504 7.91699Z" fill="white" style="fill:white;fill-opacity:1;"/>
<path d="M76.7891 25.4259C77.803 25.4259 79.0395 25.2033 80.4492 24.7582V29.1107C78.9901 29.7537 77.2095 30.0752 75.0827 30.0752C72.758 30.0752 71.0516 29.4817 69.9882 28.2946C68.9248 27.1076 68.3807 25.3517 68.3807 22.9776V12.6897H65.5862V10.2167L68.8011 8.26297L70.4828 3.7373H74.2171V8.2877H80.2513V12.6897H74.2666V23.0023C74.2666 23.8431 74.4891 24.4367 74.959 24.8324C75.4289 25.228 76.0471 25.4259 76.7891 25.4259Z" fill="white" style="fill:white;fill-opacity:1;"/>
<path d="M94.4696 30.0755C91.032 30.0755 88.3364 29.1357 86.4074 27.2315C84.4785 25.3272 83.4893 22.6316 83.4893 19.1693C83.4893 15.5834 84.3796 12.8136 86.1849 10.8599C87.9655 8.90621 90.4632 7.91699 93.604 7.91699C96.6211 7.91699 98.9705 8.78256 100.652 10.489C102.334 12.2201 103.175 14.5942 103.175 17.6113V20.4306H89.3998C89.474 22.0875 89.9439 23.3735 90.8837 24.3133C91.7987 25.253 93.0847 25.6982 94.7416 25.6982C96.0276 25.6982 97.2394 25.5745 98.4017 25.3025C99.564 25.0304 100.751 24.61 101.988 24.0165V28.5422C100.974 29.0615 99.8855 29.4325 98.7232 29.6798C97.5609 29.9518 96.1512 30.0755 94.4696 30.0755ZM93.6535 12.0717C92.4169 12.0717 91.4525 12.4674 90.7353 13.2588C90.0428 14.0501 89.6224 15.163 89.5235 16.5974H97.7093C97.6845 15.163 97.3136 14.0501 96.5717 13.2588C95.8297 12.4674 94.89 12.0717 93.6535 12.0717Z" fill="white" style="fill:white;fill-opacity:1;"/>
<path d="M112.326 18.772L105.451 8.31104H112.079L116.234 15.1119L120.413 8.31104H126.992L120.042 18.772L127.338 29.7029H120.71L116.209 22.3826L111.683 29.7029H105.056L112.326 18.772Z" fill="white" style="fill:white;fill-opacity:1;"/>
<path d="M148.16 29.7027L146.132 23.0502H135.943L133.915 29.7027H127.534L137.377 1.60889H144.623L154.54 29.6779H148.16V29.7027ZM144.722 18.0546C142.843 12.0204 141.804 8.6076 141.557 7.81622C141.309 7.02485 141.161 6.40659 141.062 5.93671C140.642 7.56892 139.43 11.6 137.451 18.0546H144.722Z" fill="white" style="fill:white;fill-opacity:1;"/>
<path d="M158.054 29.7035V1.7334H163.99V29.7035H158.054Z" fill="white" style="fill:white;fill-opacity:1;"/>
</svg>
