<svg width="120" height="39" viewBox="0 0 177 39" fill="none" xmlns="http://www.w3.org/2000/svg">
<g clip-path="url(#clip0_5161_7486)">
<path d="M167.619 31.0774C167.619 28.4875 169.721 26.3862 172.31 26.3862C174.9 26.3862 177 28.4875 177 31.0774C177 33.6674 174.9 35.7675 172.31 35.7675C169.721 35.7675 167.619 33.6674 167.619 31.0774Z" fill="white" style="fill:white;fill-opacity:1;"/>
<path d="M18.005 18.6544C18.005 15.683 17.4309 13.4785 16.2826 12.0422C15.1326 10.6076 13.3913 9.89083 11.0495 9.89083H8.55879V28.0614H10.4646C13.0654 28.0614 14.9712 27.2902 16.1849 25.7428C17.3969 24.1982 18.005 21.8349 18.005 18.6544ZM26.888 18.3447C26.888 23.7583 25.433 27.9298 22.5225 30.8576C19.6123 33.7869 15.5211 35.2515 10.2472 35.2515H0V2.81325H10.9627C16.0476 2.81325 19.9733 4.14501 22.7397 6.80692C25.5049 9.47023 26.888 13.314 26.888 18.3447ZM55.2731 35.2513H63.4271V2.67698H55.2731V35.2513ZM74.8821 23.1009C74.8821 25.1777 75.1535 26.7618 75.6954 27.8504C76.2383 28.9406 77.1476 29.4849 78.4262 29.4849C79.6914 29.4849 80.586 28.9406 81.1073 27.8504C81.6284 26.7618 81.8878 25.1777 81.8878 23.1009C81.8878 21.0348 81.6244 19.4765 81.0965 18.4246C80.567 17.3696 79.6643 16.8417 78.3843 16.8417C77.1326 16.8417 76.2383 17.3672 75.6952 18.4123C75.1537 19.4589 74.8821 21.0212 74.8821 23.1009ZM90.187 23.1009C90.187 27.0578 89.15 30.1447 87.0703 32.3572C84.9923 34.5711 82.0832 35.6789 78.3435 35.6789C74.7573 35.6789 71.9025 34.5468 69.7835 32.2825C67.6619 30.0184 66.6017 26.9587 66.6017 23.1011C66.6017 19.1562 67.6403 16.091 69.7198 13.9057C71.7992 11.7201 74.7151 10.6275 78.4696 10.6275C80.7896 10.6275 82.8421 11.1339 84.6202 12.1451C86.3998 13.1562 87.7737 14.6048 88.7388 16.4917C89.7053 18.3757 90.187 20.5802 90.187 23.1009ZM93.4254 35.2513H101.581V11.0551H93.4254V35.2513ZM93.425 8.12828H101.581V2.67578H93.425V8.12828ZM118.103 29.0799C119.204 29.0799 120.515 28.8001 122.045 28.2451V34.3332C120.946 34.8163 119.9 35.1624 118.907 35.3674C117.913 35.5752 116.747 35.6783 115.413 35.6783C112.675 35.6783 110.701 34.9902 109.489 33.6162C108.282 32.2427 107.677 30.1333 107.677 27.2868V17.3121H104.821V11.0573H107.677V4.87812L115.895 3.44886V11.0571H121.098V17.3123H115.895V26.7301C115.895 28.2966 116.632 29.0799 118.103 29.0799ZM136.978 29.0799C138.079 29.0799 139.39 28.8001 140.92 28.2451V34.3332C139.822 34.8163 138.775 35.1624 137.781 35.3674C136.786 35.5752 135.625 35.6783 134.288 35.6783C131.55 35.6783 129.576 34.9902 128.366 33.6162C127.157 32.2427 126.552 30.1333 126.552 27.2868V17.3121H123.694V11.0573H126.552V4.78461L134.768 3.44886V11.0571H139.974V17.3123H134.768V26.7301C134.768 28.2966 135.505 29.0799 136.978 29.0799ZM151.21 20.1532C151.321 18.8285 151.7 17.8578 152.346 17.2376C152.995 16.6185 153.796 16.309 154.754 16.309C155.8 16.309 156.63 16.6565 157.247 17.3568C157.867 18.0532 158.19 18.9859 158.216 20.1532H151.21ZM162.71 13.4801C160.772 11.5799 158.022 10.6281 154.464 10.6281C150.724 10.6281 147.846 11.7209 145.829 13.9063C143.813 16.0918 142.805 19.2273 142.805 23.3135C142.805 27.2702 143.895 30.3217 146.07 32.4637C148.246 34.6057 151.301 35.6781 155.236 35.6781C157.126 35.6781 158.752 35.5492 160.115 35.2927C161.47 35.0389 162.781 34.5799 164.053 33.9176L162.8 28.4647C161.876 28.8423 160.996 29.1326 160.165 29.3239C158.965 29.6024 157.649 29.7421 156.215 29.7421C154.643 29.7421 153.402 29.358 152.493 28.5897C151.583 27.8201 151.099 26.7585 151.043 25.4065H165.619V21.6912C165.619 18.1171 164.65 15.3791 162.71 13.4801ZM37.7107 20.1532C37.822 18.8285 38.2009 17.8578 38.8469 17.2376C39.4943 16.6185 40.2965 16.309 41.2564 16.309C42.2988 16.309 43.1297 16.6565 43.7473 17.3568C44.3675 18.0532 44.6892 18.9859 44.7178 20.1532H37.7107ZM49.2122 13.4801C47.2724 11.5799 44.5235 10.6281 40.9645 10.6281C37.2234 10.6281 34.3471 11.7209 32.3312 13.9063C30.3154 16.0918 29.3056 19.2273 29.3056 23.3135C29.3056 27.2702 30.3942 30.3217 32.5715 32.4637C34.7461 34.6057 37.8016 35.6781 41.737 35.6781C43.6264 35.6781 45.2527 35.5492 46.6154 35.2927C47.9701 35.0389 49.2815 34.5799 50.5547 33.9176L49.3005 28.4647C48.3759 28.8423 47.4964 29.1326 46.6669 29.3239C45.4645 29.6024 44.1491 29.7421 42.7154 29.7421C41.1449 29.7421 39.9031 29.358 38.9935 28.5897C38.0826 27.8201 37.5994 26.7585 37.5439 25.4065H52.1198V21.6912C52.1198 18.1171 51.1507 15.3791 49.2122 13.4801Z" fill="white" style="fill:white;fill-opacity:1;"/>
</g>
<defs>
<clipPath id="clip0_5161_7486">
<rect width="177" height="38.4444" fill="white" style="fill:white;fill-opacity:1;"/>
</clipPath>
</defs>
</svg>
