<svg width="140" height="67" viewBox="0 0 309 67" fill="none" xmlns="http://www.w3.org/2000/svg">
<g clip-path="url(#clip0_2847_6394)">
<path d="M292.122 54.1626C292.122 49.6488 295.787 45.9868 300.298 45.9868C304.812 45.9868 308.472 49.6488 308.472 54.1626C308.472 58.6763 304.812 62.3362 300.298 62.3362C295.787 62.3362 292.122 58.6763 292.122 54.1626Z" fill="white"/>
<path d="M31.3786 32.5108C31.3786 27.3323 30.3781 23.4903 28.3769 20.9872C26.3728 18.4869 23.338 17.2378 19.2567 17.2378H14.9161V48.9051H18.2375C22.77 48.9051 26.0914 47.5609 28.2066 44.8642C30.3189 42.1724 31.3786 38.0536 31.3786 32.5108ZM46.8598 31.971C46.8598 41.4056 44.324 48.6756 39.2517 53.7782C34.1798 58.8833 27.0498 61.4358 17.8586 61.4358H0V4.90316H19.1056C27.9674 4.90316 34.809 7.22411 39.6303 11.8632C44.4494 16.5048 46.8598 23.2044 46.8598 31.9717M96.3286 61.4354H110.539V4.66566H96.3286V61.4354ZM130.503 40.2599C130.503 43.8794 130.976 46.6402 131.92 48.5374C132.866 50.4373 134.451 51.3859 136.679 51.3859C138.884 51.3859 140.443 50.4373 141.352 48.5374C142.26 46.6402 142.712 43.8794 142.712 40.2599C142.712 36.6593 142.253 33.9434 141.333 32.1103C140.41 30.2717 138.837 29.3517 136.606 29.3517C134.425 29.3517 132.866 30.2675 131.92 32.0887C130.976 33.9128 130.503 36.6356 130.503 40.2599ZM157.176 40.2599C157.176 47.1559 155.369 52.5357 151.744 56.3917C148.123 60.2501 143.053 62.1806 136.535 62.1806C130.285 62.1806 125.31 60.2076 121.617 56.2614C117.92 52.3156 116.072 46.9832 116.072 40.2603C116.072 33.3852 117.882 28.0434 121.506 24.2348C125.13 20.4258 130.212 18.5217 136.755 18.5217C140.798 18.5217 144.375 19.4041 147.474 21.1665C150.575 22.9286 152.97 25.4532 154.652 28.7416C156.336 32.025 157.176 35.867 157.176 40.2599ZM162.82 61.4354H177.033V19.2669H162.82V61.4354ZM162.819 14.1661H177.032V4.66357H162.819V14.1661ZM205.828 50.68C207.746 50.68 210.031 50.1925 212.698 49.2251V59.8353C210.781 60.6773 208.96 61.2805 207.228 61.6378C205.497 61.9999 203.464 62.1796 201.139 62.1796C196.367 62.1796 192.928 60.9803 190.815 58.5859C188.711 56.1921 187.657 52.5159 187.657 47.555V30.1714H182.679V19.2708H187.657V8.50176L201.979 6.01087V19.2704H211.047V30.1717H201.979V46.5848C201.979 49.315 203.263 50.68 205.828 50.68ZM238.722 50.68C240.641 50.68 242.926 50.1925 245.592 49.2251V59.8353C243.678 60.6773 241.854 61.2805 240.122 61.6378C238.388 61.9999 236.364 62.1796 234.033 62.1796C229.262 62.1796 225.822 60.9803 223.714 58.5859C221.606 56.1921 220.551 52.5159 220.551 47.555V30.1714H215.571V19.2708H220.551V8.33879L234.87 6.01087V19.2704H243.943V30.1717H234.871V46.5848C234.871 49.315 236.155 50.68 238.722 50.68ZM263.525 35.1229C263.719 32.8141 264.38 31.1224 265.506 30.0415C266.637 28.9627 268.032 28.4233 269.702 28.4233C271.524 28.4233 272.972 29.0288 274.046 30.2494C275.127 31.463 275.69 33.0885 275.735 35.1229H263.525ZM283.568 23.493C280.189 20.1814 275.397 18.5228 269.196 18.5228C262.679 18.5228 257.663 20.4272 254.148 24.2358C250.635 28.0447 248.877 33.5092 248.877 40.6305C248.877 47.5261 250.777 52.8443 254.567 56.5773C258.359 60.3103 263.684 62.1793 270.542 62.1793C273.835 62.1793 276.669 61.9546 279.044 61.5075C281.405 61.0653 283.691 60.2654 285.908 59.111L283.724 49.6078C282.113 50.266 280.58 50.772 279.132 51.1052C277.041 51.5906 274.746 51.834 272.248 51.834C269.508 51.834 267.346 51.1648 265.761 49.8258C264.176 48.4844 263.331 46.6343 263.235 44.2782H288.637V37.8032C288.637 31.5744 286.948 26.8026 283.568 23.493ZM65.7214 35.1229C65.9153 32.8141 66.5756 31.1224 67.7014 30.0415C68.8296 28.9627 70.2278 28.4233 71.9007 28.4233C73.7174 28.4233 75.1653 29.0288 76.2417 30.2494C77.3226 31.463 77.8833 33.0885 77.9331 35.1229H65.7214ZM85.7658 23.493C82.3852 20.1814 77.5946 18.5228 71.3919 18.5228C64.872 18.5228 59.8593 20.4272 56.346 24.2358C52.833 28.0447 51.0731 33.5092 51.0731 40.6305C51.0731 47.5261 52.9702 52.8443 56.7649 56.5773C60.5547 60.3103 65.8798 62.1793 72.7382 62.1793C76.031 62.1793 78.8653 61.9546 81.2402 61.5075C83.6012 61.0653 85.8866 60.2654 88.1055 59.111L85.9197 49.6078C84.3085 50.266 82.7755 50.772 81.33 51.1052C79.2344 51.5906 76.942 51.834 74.4435 51.834C71.7064 51.834 69.5421 51.1648 67.957 49.8258C66.3694 48.4844 65.5274 46.6343 65.4306 44.2782H90.8332V37.8032C90.8332 31.5744 89.1443 26.8026 85.7658 23.493Z" fill="white"/>
</g>
<defs>
<clipPath id="clip0_2847_6394">
<rect width="308.471" height="67" fill="white"/>
</clipPath>
</defs>
</svg>
