<svg width="140" height="58" viewBox="0 0 309 58" fill="none" xmlns="http://www.w3.org/2000/svg">
<path d="M292.122 49.499C292.122 44.9852 295.787 41.3232 300.298 41.3232C304.812 41.3232 308.472 44.9852 308.472 49.499C308.472 54.0127 304.812 57.6726 300.298 57.6726C295.787 57.6726 292.122 54.0127 292.122 49.499Z" fill="white"/>
<path d="M31.3786 27.8472C31.3786 22.6687 30.3781 18.8267 28.3769 16.3236C26.3728 13.8233 23.338 12.5742 19.2567 12.5742H14.9161V44.2415H18.2375C22.77 44.2415 26.0914 42.8974 28.2066 40.2007C30.3189 37.5088 31.3786 33.39 31.3786 27.8472ZM46.8598 27.3075C46.8598 36.742 44.324 44.012 39.2517 49.1146C34.1798 54.2197 27.0498 56.7722 17.8586 56.7722H0V0.239582H19.1056C27.9674 0.239582 34.809 2.56053 39.6303 7.19965C44.4494 11.8412 46.8598 18.5408 46.8598 27.3082M96.3286 56.7719H110.539V0.00208956H96.3286V56.7719ZM130.503 35.5964C130.503 39.2159 130.976 41.9766 131.92 43.8738C132.866 45.7737 134.451 46.7223 136.679 46.7223C138.884 46.7223 140.443 45.7737 141.352 43.8738C142.26 41.9766 142.712 39.2159 142.712 35.5964C142.712 31.9957 142.253 29.2798 141.333 27.4468C140.41 25.6081 138.837 24.6881 136.606 24.6881C134.425 24.6881 132.866 25.6039 131.92 27.4252C130.976 29.2492 130.503 31.972 130.503 35.5964ZM157.176 35.5964C157.176 42.4924 155.369 47.8722 151.744 51.7281C148.123 55.5865 143.053 57.5171 136.535 57.5171C130.285 57.5171 125.31 55.544 121.617 51.5979C117.92 47.6521 116.072 42.3196 116.072 35.5967C116.072 28.7216 117.882 23.3798 121.506 19.5712C125.13 15.7623 130.212 13.8581 136.755 13.8581C140.798 13.8581 144.375 14.7406 147.474 16.5029C150.575 18.265 152.97 20.7896 154.652 24.078C156.336 27.3614 157.176 31.2035 157.176 35.5964ZM162.82 56.7719H177.033V14.6034H162.82V56.7719ZM162.819 9.50249H177.032V0H162.819V9.50249ZM205.828 46.0164C207.746 46.0164 210.031 45.5289 212.698 44.5615V55.1717C210.781 56.0138 208.96 56.6169 207.228 56.9742C205.497 57.3363 203.464 57.516 201.139 57.516C196.367 57.516 192.928 56.3167 190.815 53.9223C188.712 51.5286 187.657 47.8523 187.657 42.8914V25.5078H182.679V14.6072H187.657V3.83819L201.979 1.3473V14.6068H211.047V25.5082H201.979V41.9213C201.979 44.6514 203.263 46.0164 205.828 46.0164ZM238.722 46.0164C240.641 46.0164 242.926 45.5289 245.592 44.5615V55.1717C243.678 56.0138 241.854 56.6169 240.122 56.9742C238.388 57.3363 236.364 57.516 234.033 57.516C229.262 57.516 225.822 56.3167 223.714 53.9223C221.606 51.5286 220.551 47.8523 220.551 42.8914V25.5078H215.571V14.6072H220.551V3.67521L234.87 1.3473V14.6068H243.943V25.5082H234.871V41.9213C234.871 44.6514 236.155 46.0164 238.722 46.0164ZM263.525 30.4593C263.719 28.1505 264.38 26.4588 265.505 25.3779C266.637 24.2991 268.032 23.7597 269.702 23.7597C271.524 23.7597 272.972 24.3653 274.046 25.5858C275.127 26.7994 275.69 28.4249 275.735 30.4593H263.525ZM283.568 18.8295C280.189 15.5178 275.397 13.8592 269.196 13.8592C262.679 13.8592 257.663 15.7637 254.148 19.5722C250.635 23.3812 248.877 28.8456 248.877 35.9669C248.877 42.8625 250.777 48.1807 254.567 51.9137C258.359 55.6467 263.684 57.5157 270.542 57.5157C273.835 57.5157 276.669 57.2911 279.044 56.8439C281.405 56.4017 283.691 55.6018 285.908 54.4474L283.724 44.9442C282.113 45.6024 280.58 46.1084 279.132 46.4416C277.041 46.9271 274.746 47.1705 272.248 47.1705C269.508 47.1705 267.346 46.5012 265.761 45.1622C264.176 43.8209 263.331 41.9707 263.235 39.6146H288.637V33.1396C288.637 26.9108 286.948 22.139 283.568 18.8295ZM65.7214 30.4593C65.9153 28.1505 66.5756 26.4588 67.7014 25.3779C68.8297 24.2991 70.2278 23.7597 71.9007 23.7597C73.7174 23.7597 75.1653 24.3653 76.2417 25.5858C77.3226 26.7994 77.8833 28.4249 77.9331 30.4593H65.7214ZM85.7658 18.8295C82.3852 15.5178 77.5946 13.8592 71.3919 13.8592C64.872 13.8592 59.8593 15.7637 56.346 19.5722C52.833 23.3812 51.0731 28.8456 51.0731 35.9669C51.0731 42.8625 52.9702 48.1807 56.7649 51.9137C60.5547 55.6467 65.8798 57.5157 72.7382 57.5157C76.031 57.5157 78.8653 57.2911 81.2402 56.8439C83.6012 56.4017 85.8866 55.6018 88.1055 54.4474L85.9197 44.9442C84.3084 45.6024 82.7756 46.1084 81.33 46.4416C79.2344 46.9271 76.942 47.1705 74.4435 47.1705C71.7064 47.1705 69.5421 46.5012 67.957 45.1622C66.3694 43.8209 65.5274 41.9707 65.4306 39.6146H90.8332V33.1396C90.8332 26.9108 89.1443 22.139 85.7658 18.8295Z" fill="white"/>
</svg>
