<svg width="120" height="51" viewBox="0 0 232 51" fill="none" xmlns="http://www.w3.org/2000/svg">
<g clip-path="url(#clip0_2880_6408)">
<path d="M219.703 40.7354C219.703 37.3406 222.459 34.5864 225.852 34.5864C229.247 34.5864 232 37.3406 232 40.7354C232 44.1301 229.247 46.8827 225.852 46.8827C222.459 46.8827 219.703 44.1301 219.703 40.7354Z" fill="white"/>
<path d="M23.5997 24.4511C23.5997 20.5563 22.8473 17.6668 21.3421 15.7842C19.8349 13.9038 17.5524 12.9643 14.4829 12.9643H11.2183V36.7812H13.7163C17.1252 36.7812 19.6233 35.7702 21.2141 33.7421C22.8027 31.7176 23.5997 28.6198 23.5997 24.4511ZM35.2431 24.0451C35.2431 31.1409 33.3359 36.6086 29.5211 40.4462C25.7065 44.2857 20.344 46.2054 13.4314 46.2054H0V3.68751H14.3692C21.0341 3.68751 26.1797 5.43309 29.8057 8.92215C33.4302 12.413 35.2431 17.4518 35.2431 24.0457M72.4483 46.2052H83.136V3.5089H72.4483V46.2052ZM98.1506 30.2792C98.1506 33.0014 98.5063 35.0778 99.2165 36.5046C99.9281 37.9335 101.12 38.647 102.796 38.647C104.454 38.647 105.627 37.9335 106.31 36.5046C106.993 35.0778 107.333 33.0014 107.333 30.2792C107.333 27.5711 106.988 25.5286 106.296 24.1499C105.602 22.7671 104.419 22.0751 102.741 22.0751C101.1 22.0751 99.9281 22.7639 99.2163 24.1337C98.5065 25.5055 98.1506 27.5533 98.1506 30.2792ZM118.211 30.2792C118.211 35.4656 116.852 39.5118 114.126 42.4118C111.402 45.3137 107.589 46.7657 102.688 46.7657C97.9869 46.7657 94.2451 45.2817 91.4676 42.3138C88.6868 39.3462 87.2971 35.3357 87.2971 30.2795C87.2971 25.1087 88.6585 21.0912 91.3841 18.2267C94.1097 15.362 97.9317 13.93 102.853 13.93C105.894 13.93 108.584 14.5936 110.915 15.9191C113.247 17.2443 115.048 19.1431 116.313 21.6163C117.58 24.0857 118.211 26.9753 118.211 30.2792ZM122.456 46.2052H133.145V14.4904H122.456V46.2052ZM122.455 10.6541H133.145V3.50732H122.455V10.6541ZM154.802 38.1161C156.245 38.1161 157.964 37.7494 159.969 37.0219V45.0017C158.528 45.635 157.158 46.0886 155.855 46.3573C154.553 46.6297 153.025 46.7649 151.276 46.7649C147.687 46.7649 145.1 45.8629 143.511 44.062C141.929 42.2617 141.136 39.4968 141.136 35.7658V22.6916H137.392V14.4933H141.136V6.39401L151.907 4.52062V14.4931H158.727V22.6919H151.907V35.0361C151.907 37.0894 152.873 38.1161 154.802 38.1161ZM179.542 38.1161C180.985 38.1161 182.704 37.7494 184.709 37.0219V45.0017C183.269 45.635 181.897 46.0886 180.595 46.3573C179.291 46.6297 177.768 46.7649 176.015 46.7649C172.427 46.7649 169.84 45.8629 168.254 44.062C166.669 42.2617 165.876 39.4968 165.876 35.7658V22.6916H162.13V14.4933H165.876V6.27144L176.645 4.52062V14.4931H183.469V22.6919H176.645V35.0361C176.645 37.0894 177.611 38.1161 179.542 38.1161ZM198.196 26.4156C198.342 24.6792 198.839 23.4069 199.686 22.5939C200.536 21.7826 201.586 21.3769 202.842 21.3769C204.212 21.3769 205.301 21.8323 206.109 22.7503C206.922 23.663 207.345 24.8856 207.379 26.4156H198.196ZM213.27 17.6689C210.729 15.1782 207.125 13.9308 202.461 13.9308C197.559 13.9308 193.787 15.3631 191.143 18.2275C188.501 21.0922 187.179 25.202 187.179 30.5579C187.179 35.744 188.608 39.7438 191.458 42.5514C194.31 45.359 198.315 46.7646 203.473 46.7646C205.95 46.7646 208.082 46.5957 209.868 46.2594C211.644 45.9268 213.363 45.3252 215.03 44.457L213.387 37.3097C212.176 37.8047 211.023 38.1852 209.934 38.4359C208.361 38.801 206.635 38.984 204.756 38.984C202.696 38.984 201.07 38.4806 199.878 37.4736C198.686 36.4648 198.05 35.0733 197.978 33.3013H217.083V28.4315C217.083 23.7468 215.813 20.158 213.27 17.6689ZM49.4287 26.4156C49.5746 24.6792 50.0712 23.4069 50.9179 22.5939C51.7665 21.7826 52.818 21.3769 54.0762 21.3769C55.4425 21.3769 56.5315 21.8323 57.3411 22.7503C58.154 23.663 58.5757 24.8856 58.6131 26.4156H49.4287ZM64.5041 17.6689C61.9615 15.1782 58.3585 13.9308 53.6935 13.9308C48.79 13.9308 45.0199 15.3631 42.3776 18.2275C39.7355 21.0922 38.4118 25.202 38.4118 30.5579C38.4118 35.744 39.8387 39.7438 42.6926 42.5514C45.5429 45.359 49.5479 46.7646 54.7061 46.7646C57.1826 46.7646 59.3142 46.5957 61.1004 46.2594C62.8761 45.9268 64.595 45.3252 66.2638 44.457L64.6198 37.3097C63.408 37.8047 62.2551 38.1852 61.168 38.4359C59.5918 38.801 57.8677 38.984 55.9886 38.984C53.93 38.984 52.3023 38.4806 51.1101 37.4736C49.9161 36.4648 49.2829 35.0733 49.2101 33.3013H68.3153V28.4315C68.3153 23.7468 67.045 20.158 64.5041 17.6689Z" fill="white"/>
</g>
<defs>
<clipPath id="clip0_2880_6408">
<rect width="232" height="50.3904" fill="white"/>
</clipPath>
</defs>
</svg>
