<svg width="200" height="145" viewBox="0 0 705 145" fill="none" xmlns="http://www.w3.org/2000/svg">
<path d="M195.604 33.1243C195.261 32.0471 194.799 31.0824 194.219 30.2301C193.651 29.366 192.971 28.6321 192.178 28.0284C191.384 27.4129 190.479 26.9453 189.461 26.6257C188.455 26.3061 187.348 26.1463 186.141 26.1463C184.093 26.1463 182.246 26.6731 180.601 27.7266C178.955 28.7801 177.653 30.3248 176.695 32.3608C175.748 34.3849 175.274 36.8648 175.274 39.8004C175.274 42.7479 175.754 45.2396 176.712 47.2756C177.671 49.3116 178.985 50.8563 180.654 51.9098C182.323 52.9633 184.223 53.4901 186.354 53.4901C188.33 53.4901 190.053 53.0876 191.521 52.2827C193 51.4777 194.143 50.3414 194.947 48.8736C195.764 47.3939 196.173 45.6539 196.173 43.6534L197.593 43.9197H187.188V39.392H201.482V43.5291C201.482 46.5831 200.83 49.2346 199.528 51.4837C198.238 53.7209 196.451 55.4491 194.166 56.6683C191.893 57.8875 189.289 58.4972 186.354 58.4972C183.063 58.4972 180.175 57.7396 177.689 56.2244C175.215 54.7093 173.286 52.5608 171.901 49.7791C170.516 46.9856 169.823 43.6712 169.823 39.8359C169.823 36.9358 170.226 34.3317 171.031 32.0234C171.835 29.7152 172.966 27.7562 174.422 26.1463C175.89 24.5246 177.612 23.2876 179.589 22.4354C181.577 21.5713 183.75 21.1392 186.105 21.1392C188.07 21.1392 189.899 21.4292 191.592 22.0092C193.296 22.5893 194.811 23.4119 196.137 24.4773C197.475 25.5426 198.581 26.8092 199.457 28.277C200.333 29.733 200.925 31.3487 201.233 33.1243H195.604ZM208.446 58V21.6364H231.244V26.3594H213.933V37.4389H230.055V42.1442H213.933V53.277H231.458V58H208.446ZM263.578 58H251.806V21.6364H263.95C267.513 21.6364 270.573 22.3643 273.13 23.8203C275.687 25.2644 277.646 27.3419 279.007 30.0526C280.38 32.7514 281.067 35.9889 281.067 39.7649C281.067 43.5528 280.374 46.808 278.99 49.5305C277.616 52.2531 275.628 54.3482 273.024 55.8161C270.419 57.272 267.271 58 263.578 58ZM257.292 53.206H263.276C266.046 53.206 268.348 52.6851 270.183 51.6435C272.017 50.59 273.391 49.0689 274.302 47.0803C275.213 45.0798 275.669 42.6413 275.669 39.7649C275.669 36.9122 275.213 34.4915 274.302 32.5028C273.402 30.5142 272.059 29.005 270.271 27.9751C268.484 26.9453 266.265 26.4304 263.613 26.4304H257.292V53.206ZM287.463 58V30.7273H292.772V58H287.463ZM290.145 26.5192C289.221 26.5192 288.428 26.2114 287.765 25.5959C287.114 24.9685 286.789 24.2228 286.789 23.3587C286.789 22.4827 287.114 21.737 287.765 21.1214C288.428 20.4941 289.221 20.1804 290.145 20.1804C291.068 20.1804 291.855 20.4941 292.506 21.1214C293.169 21.737 293.5 22.4827 293.5 23.3587C293.5 24.2228 293.169 24.9685 292.506 25.5959C291.855 26.2114 291.068 26.5192 290.145 26.5192ZM311.349 68.7955C309.183 68.7955 307.319 68.5114 305.756 67.9432C304.206 67.375 302.939 66.6233 301.956 65.6882C300.974 64.7531 300.24 63.7292 299.755 62.6165L304.318 60.7344C304.638 61.2552 305.064 61.8056 305.596 62.3857C306.141 62.9775 306.875 63.4806 307.798 63.8949C308.733 64.3092 309.935 64.5163 311.403 64.5163C313.415 64.5163 315.078 64.0251 316.392 63.0426C317.706 62.072 318.363 60.5213 318.363 58.3906V53.0284H318.025C317.706 53.6084 317.244 54.2536 316.64 54.9638C316.049 55.674 315.232 56.2895 314.19 56.8104C313.148 57.3312 311.793 57.5916 310.124 57.5916C307.97 57.5916 306.028 57.0885 304.3 56.0824C302.584 55.0644 301.223 53.567 300.216 51.5902C299.222 49.6016 298.725 47.1572 298.725 44.2571C298.725 41.357 299.216 38.8712 300.199 36.7997C301.193 34.7282 302.554 33.142 304.282 32.0412C306.011 30.9285 307.97 30.3722 310.16 30.3722C311.852 30.3722 313.22 30.6562 314.261 31.2244C315.303 31.7808 316.114 32.4318 316.694 33.1776C317.286 33.9233 317.741 34.5803 318.061 35.1484H318.452V30.7273H323.654V58.6037C323.654 60.9474 323.109 62.871 322.02 64.3743C320.931 65.8776 319.458 66.9903 317.599 67.7124C315.753 68.4344 313.669 68.7955 311.349 68.7955ZM311.296 53.1882C312.823 53.1882 314.113 52.8331 315.167 52.1229C316.232 51.4008 317.037 50.371 317.581 49.0334C318.138 47.6839 318.416 46.0682 318.416 44.1861C318.416 42.3513 318.144 40.7356 317.599 39.3388C317.055 37.942 316.256 36.853 315.202 36.0717C314.149 35.2786 312.847 34.8821 311.296 34.8821C309.698 34.8821 308.366 35.2964 307.301 36.125C306.236 36.9418 305.431 38.0544 304.886 39.4631C304.354 40.8717 304.087 42.446 304.087 44.1861C304.087 45.9735 304.359 47.5419 304.904 48.8913C305.448 50.2408 306.253 51.2943 307.319 52.0518C308.396 52.8094 309.722 53.1882 311.296 53.1882ZM330.774 58V30.7273H336.083V58H330.774ZM333.455 26.5192C332.532 26.5192 331.739 26.2114 331.076 25.5959C330.425 24.9685 330.099 24.2228 330.099 23.3587C330.099 22.4827 330.425 21.737 331.076 21.1214C331.739 20.4941 332.532 20.1804 333.455 20.1804C334.378 20.1804 335.166 20.4941 335.817 21.1214C336.479 21.737 336.811 22.4827 336.811 23.3587C336.811 24.2228 336.479 24.9685 335.817 25.5959C335.166 26.2114 334.378 26.5192 333.455 26.5192ZM355.956 30.7273V34.9886H341.059V30.7273H355.956ZM345.054 24.1932H350.363V49.9922C350.363 51.022 350.517 51.7973 350.825 52.3182C351.132 52.8272 351.529 53.1764 352.014 53.3658C352.511 53.5433 353.05 53.6321 353.63 53.6321C354.056 53.6321 354.429 53.6025 354.749 53.5433C355.068 53.4841 355.317 53.4368 355.494 53.4013L356.453 57.7869C356.145 57.9053 355.707 58.0237 355.139 58.142C354.571 58.2723 353.861 58.3433 353.009 58.3551C351.612 58.3788 350.31 58.1302 349.102 57.6094C347.895 57.0885 346.918 56.2836 346.173 55.1946C345.427 54.1056 345.054 52.7384 345.054 51.093V24.1932ZM369.765 58.6037C368.037 58.6037 366.475 58.2841 365.078 57.6449C363.681 56.9938 362.574 56.0528 361.758 54.8217C360.953 53.5907 360.55 52.0814 360.55 50.294C360.55 48.7552 360.846 47.4886 361.438 46.4943C362.03 45.5 362.829 44.7128 363.835 44.1328C364.841 43.5528 365.966 43.1148 367.209 42.8189C368.452 42.523 369.718 42.2981 371.008 42.1442C372.642 41.9548 373.968 41.8009 374.986 41.6825C376.004 41.5523 376.743 41.3452 377.205 41.0611C377.667 40.777 377.898 40.3153 377.898 39.6761V39.5518C377.898 38.0012 377.46 36.7997 376.584 35.9474C375.72 35.0952 374.429 34.669 372.713 34.669C370.925 34.669 369.517 35.0656 368.487 35.8587C367.469 36.6399 366.765 37.5099 366.374 38.4688L361.385 37.3324C361.977 35.6752 362.841 34.3376 363.977 33.3196C365.125 32.2898 366.445 31.544 367.937 31.0824C369.428 30.6089 370.997 30.3722 372.642 30.3722C373.731 30.3722 374.885 30.5024 376.104 30.7628C377.335 31.0114 378.483 31.473 379.549 32.1477C380.626 32.8224 381.508 33.7872 382.194 35.0419C382.881 36.2848 383.224 37.9006 383.224 39.8892V58H378.04V54.2713H377.827C377.483 54.9579 376.968 55.6326 376.282 56.2955C375.595 56.9583 374.713 57.5088 373.636 57.9467C372.559 58.3847 371.269 58.6037 369.765 58.6037ZM370.92 54.3423C372.387 54.3423 373.642 54.0523 374.684 53.4723C375.737 52.8923 376.536 52.1347 377.081 51.1996C377.637 50.2526 377.915 49.2405 377.915 48.1634V44.6477C377.726 44.8371 377.359 45.0147 376.814 45.1804C376.282 45.3343 375.672 45.4704 374.986 45.5888C374.299 45.6953 373.63 45.7959 372.979 45.8906C372.328 45.9735 371.784 46.0445 371.346 46.1037C370.316 46.2339 369.375 46.4529 368.523 46.7607C367.682 47.0684 367.007 47.5123 366.498 48.0923C366.001 48.6605 365.753 49.4181 365.753 50.3651C365.753 51.679 366.238 52.6733 367.209 53.348C368.179 54.0109 369.416 54.3423 370.92 54.3423ZM395.604 21.6364V58H390.295V21.6364H395.604ZM195.604 99.1243C195.261 98.0471 194.799 97.0824 194.219 96.2301C193.651 95.366 192.971 94.6321 192.178 94.0284C191.384 93.4129 190.479 92.9453 189.461 92.6257C188.455 92.3061 187.348 92.1463 186.141 92.1463C184.093 92.1463 182.246 92.6731 180.601 93.7266C178.955 94.7801 177.653 96.3248 176.695 98.3608C175.748 100.385 175.274 102.865 175.274 105.8C175.274 108.748 175.754 111.24 176.712 113.276C177.671 115.312 178.985 116.856 180.654 117.91C182.323 118.963 184.223 119.49 186.354 119.49C188.33 119.49 190.053 119.088 191.521 118.283C193 117.478 194.143 116.341 194.947 114.874C195.764 113.394 196.173 111.654 196.173 109.653L197.593 109.92H187.188V105.392H201.482V109.529C201.482 112.583 200.83 115.235 199.528 117.484C198.238 119.721 196.451 121.449 194.166 122.668C191.893 123.888 189.289 124.497 186.354 124.497C183.063 124.497 180.175 123.74 177.689 122.224C175.215 120.709 173.286 118.561 171.901 115.779C170.516 112.986 169.823 109.671 169.823 105.836C169.823 102.936 170.226 100.332 171.031 98.0234C171.835 95.7152 172.966 93.7562 174.422 92.1463C175.89 90.5246 177.612 89.2876 179.589 88.4354C181.577 87.5713 183.75 87.1392 186.105 87.1392C188.07 87.1392 189.899 87.4292 191.592 88.0092C193.296 88.5893 194.811 89.4119 196.137 90.4773C197.475 91.5426 198.581 92.8092 199.457 94.277C200.333 95.733 200.925 97.3487 201.233 99.1243H195.604ZM208.446 124V87.6364H231.244V92.3594H213.933V103.439H230.055V108.144H213.933V119.277H231.458V124H208.446ZM265.038 124V87.6364H278C280.817 87.6364 283.155 88.1217 285.013 89.0923C286.883 90.063 288.28 91.4065 289.203 93.1229C290.127 94.8274 290.588 96.7983 290.588 99.0355C290.588 101.261 290.121 103.22 289.186 104.913C288.262 106.594 286.866 107.902 284.995 108.837C283.137 109.772 280.799 110.239 277.982 110.239H268.163V105.516H277.485C279.26 105.516 280.704 105.262 281.817 104.753C282.942 104.244 283.764 103.504 284.285 102.533C284.806 101.563 285.066 100.397 285.066 99.0355C285.066 97.6624 284.8 96.4728 284.267 95.4666C283.747 94.4605 282.924 93.6911 281.799 93.1584C280.687 92.6139 279.225 92.3416 277.414 92.3416H270.525V124H265.038ZM282.989 107.594L291.973 124H285.723L276.917 107.594H282.989ZM308.251 124.55C305.564 124.55 303.25 123.976 301.308 122.828C299.379 121.668 297.887 120.04 296.834 117.945C295.792 115.838 295.271 113.37 295.271 110.541C295.271 107.748 295.792 105.286 296.834 103.155C297.887 101.024 299.355 99.361 301.237 98.1655C303.131 96.9699 305.345 96.3722 307.878 96.3722C309.417 96.3722 310.908 96.6267 312.352 97.1357C313.797 97.6446 315.093 98.4437 316.241 99.5327C317.389 100.622 318.295 102.036 318.958 103.776C319.62 105.504 319.952 107.606 319.952 110.08V111.962H298.272V107.984H314.749C314.749 106.588 314.465 105.351 313.897 104.273C313.329 103.184 312.53 102.326 311.5 101.699C310.482 101.071 309.287 100.758 307.914 100.758C306.422 100.758 305.12 101.125 304.007 101.859C302.906 102.581 302.054 103.528 301.45 104.7C300.859 105.86 300.563 107.12 300.563 108.482V111.589C300.563 113.412 300.882 114.962 301.521 116.241C302.173 117.519 303.078 118.496 304.238 119.17C305.398 119.833 306.753 120.165 308.304 120.165C309.31 120.165 310.228 120.023 311.056 119.739C311.885 119.443 312.601 119.005 313.205 118.425C313.808 117.845 314.27 117.129 314.59 116.276L319.615 117.182C319.212 118.661 318.49 119.958 317.448 121.07C316.419 122.171 315.122 123.029 313.56 123.645C312.009 124.249 310.24 124.55 308.251 124.55ZM331.151 107.807V124H325.842V96.7273H330.938V101.166H331.276C331.903 99.7221 332.885 98.562 334.223 97.6861C335.572 96.8101 337.271 96.3722 339.319 96.3722C341.177 96.3722 342.805 96.7628 344.202 97.544C345.598 98.3134 346.682 99.4616 347.451 100.989C348.22 102.516 348.605 104.404 348.605 106.653V124H343.296V107.292C343.296 105.315 342.781 103.77 341.751 102.658C340.722 101.533 339.307 100.971 337.508 100.971C336.277 100.971 335.182 101.237 334.223 101.77C333.276 102.303 332.524 103.084 331.968 104.114C331.424 105.132 331.151 106.363 331.151 107.807ZM367.479 124.55C364.792 124.55 362.478 123.976 360.537 122.828C358.607 121.668 357.116 120.04 356.062 117.945C355.021 115.838 354.5 113.37 354.5 110.541C354.5 107.748 355.021 105.286 356.062 103.155C357.116 101.024 358.584 99.361 360.466 98.1655C362.36 96.9699 364.573 96.3722 367.107 96.3722C368.645 96.3722 370.137 96.6267 371.581 97.1357C373.025 97.6446 374.321 98.4437 375.469 99.5327C376.618 100.622 377.523 102.036 378.186 103.776C378.849 105.504 379.18 107.606 379.18 110.08V111.962H357.501V107.984H373.978C373.978 106.588 373.694 105.351 373.126 104.273C372.558 103.184 371.759 102.326 370.729 101.699C369.711 101.071 368.515 100.758 367.142 100.758C365.651 100.758 364.348 101.125 363.236 101.859C362.135 102.581 361.283 103.528 360.679 104.7C360.087 105.86 359.791 107.12 359.791 108.482V111.589C359.791 113.412 360.111 114.962 360.75 116.241C361.401 117.519 362.307 118.496 363.467 119.17C364.627 119.833 365.982 120.165 367.533 120.165C368.539 120.165 369.456 120.023 370.285 119.739C371.113 119.443 371.83 119.005 372.433 118.425C373.037 117.845 373.499 117.129 373.818 116.276L378.843 117.182C378.441 118.661 377.719 119.958 376.677 121.07C375.647 122.171 374.351 123.029 372.788 123.645C371.238 124.249 369.468 124.55 367.479 124.55ZM390.935 124L382.909 96.7273H388.396L393.74 116.756H394.006L399.369 96.7273H404.855L410.182 116.667H410.448L415.757 96.7273H421.244L413.236 124H407.82L402.281 104.309H401.872L396.332 124H390.935ZM434.219 124.604C432.49 124.604 430.928 124.284 429.531 123.645C428.134 122.994 427.028 122.053 426.211 120.822C425.406 119.591 425.003 118.081 425.003 116.294C425.003 114.755 425.299 113.489 425.891 112.494C426.483 111.5 427.282 110.713 428.288 110.133C429.294 109.553 430.419 109.115 431.662 108.819C432.905 108.523 434.171 108.298 435.461 108.144C437.095 107.955 438.421 107.801 439.439 107.683C440.457 107.552 441.197 107.345 441.658 107.061C442.12 106.777 442.351 106.315 442.351 105.676V105.552C442.351 104.001 441.913 102.8 441.037 101.947C440.173 101.095 438.882 100.669 437.166 100.669C435.379 100.669 433.97 101.066 432.94 101.859C431.922 102.64 431.218 103.51 430.827 104.469L425.838 103.332C426.43 101.675 427.294 100.338 428.43 99.3196C429.578 98.2898 430.898 97.544 432.39 97.0824C433.881 96.6089 435.45 96.3722 437.095 96.3722C438.184 96.3722 439.338 96.5024 440.557 96.7628C441.788 97.0114 442.937 97.473 444.002 98.1477C445.079 98.8224 445.961 99.7872 446.648 101.042C447.334 102.285 447.677 103.901 447.677 105.889V124H442.493V120.271H442.28C441.936 120.958 441.421 121.633 440.735 122.295C440.048 122.958 439.166 123.509 438.089 123.947C437.012 124.385 435.722 124.604 434.219 124.604ZM435.373 120.342C436.84 120.342 438.095 120.052 439.137 119.472C440.19 118.892 440.989 118.135 441.534 117.2C442.09 116.253 442.368 115.241 442.368 114.163V110.648C442.179 110.837 441.812 111.015 441.268 111.18C440.735 111.334 440.125 111.47 439.439 111.589C438.752 111.695 438.083 111.796 437.432 111.891C436.781 111.973 436.237 112.045 435.799 112.104C434.769 112.234 433.828 112.453 432.976 112.761C432.135 113.068 431.461 113.512 430.952 114.092C430.454 114.661 430.206 115.418 430.206 116.365C430.206 117.679 430.691 118.673 431.662 119.348C432.632 120.011 433.869 120.342 435.373 120.342ZM455.175 124V87.6364H460.484V101.148H460.803C461.111 100.58 461.555 99.9233 462.135 99.1776C462.715 98.4318 463.52 97.7808 464.55 97.2244C465.58 96.6562 466.941 96.3722 468.634 96.3722C470.835 96.3722 472.8 96.9285 474.528 98.0412C476.257 99.1539 477.612 100.758 478.594 102.853C479.589 104.948 480.086 107.469 480.086 110.417C480.086 113.364 479.595 115.892 478.612 117.999C477.63 120.094 476.28 121.71 474.564 122.846C472.848 123.97 470.888 124.533 468.687 124.533C467.03 124.533 465.674 124.254 464.621 123.698C463.579 123.142 462.762 122.491 462.17 121.745C461.579 120.999 461.123 120.336 460.803 119.756H460.359V124H455.175ZM460.377 110.364C460.377 112.281 460.655 113.962 461.212 115.406C461.768 116.85 462.573 117.981 463.626 118.798C464.68 119.603 465.97 120.005 467.497 120.005C469.083 120.005 470.409 119.585 471.474 118.744C472.54 117.892 473.345 116.738 473.889 115.282C474.446 113.826 474.724 112.187 474.724 110.364C474.724 108.564 474.451 106.949 473.907 105.516C473.374 104.084 472.569 102.954 471.492 102.125C470.427 101.296 469.095 100.882 467.497 100.882C465.958 100.882 464.656 101.279 463.591 102.072C462.537 102.865 461.738 103.972 461.194 105.392C460.649 106.812 460.377 108.47 460.377 110.364ZM491.356 87.6364V124H486.047V87.6364H491.356ZM510.253 124.55C507.566 124.55 505.252 123.976 503.31 122.828C501.381 121.668 499.889 120.04 498.836 117.945C497.794 115.838 497.273 113.37 497.273 110.541C497.273 107.748 497.794 105.286 498.836 103.155C499.889 101.024 501.357 99.361 503.239 98.1655C505.133 96.9699 507.347 96.3722 509.88 96.3722C511.419 96.3722 512.91 96.6267 514.354 97.1357C515.799 97.6446 517.095 98.4437 518.243 99.5327C519.391 100.622 520.297 102.036 520.96 103.776C521.622 105.504 521.954 107.606 521.954 110.08V111.962H500.274V107.984H516.751C516.751 106.588 516.467 105.351 515.899 104.273C515.331 103.184 514.532 102.326 513.502 101.699C512.484 101.071 511.289 100.758 509.915 100.758C508.424 100.758 507.122 101.125 506.009 101.859C504.908 102.581 504.056 103.528 503.452 104.7C502.861 105.86 502.565 107.12 502.565 108.482V111.589C502.565 113.412 502.884 114.962 503.523 116.241C504.174 117.519 505.08 118.496 506.24 119.17C507.4 119.833 508.755 120.165 510.306 120.165C511.312 120.165 512.23 120.023 513.058 119.739C513.887 119.443 514.603 119.005 515.207 118.425C515.81 117.845 516.272 117.129 516.592 116.276L521.616 117.182C521.214 118.661 520.492 119.958 519.45 121.07C518.42 122.171 517.124 123.029 515.562 123.645C514.011 124.249 512.241 124.55 510.253 124.55ZM541.503 124V87.6364H564.301V92.3594H546.989V103.439H563.112V108.144H546.989V119.277H564.514V124H541.503ZM576.513 107.807V124H571.204V96.7273H576.3V101.166H576.637C577.264 99.7221 578.247 98.562 579.584 97.6861C580.934 96.8101 582.632 96.3722 584.68 96.3722C586.539 96.3722 588.166 96.7628 589.563 97.544C590.96 98.3134 592.043 99.4616 592.812 100.989C593.582 102.516 593.966 104.404 593.966 106.653V124H588.657V107.292C588.657 105.315 588.143 103.77 587.113 102.658C586.083 101.533 584.668 100.971 582.869 100.971C581.638 100.971 580.543 101.237 579.584 101.77C578.637 102.303 577.886 103.084 577.329 104.114C576.785 105.132 576.513 106.363 576.513 107.807ZM612.841 124.55C610.154 124.55 607.84 123.976 605.898 122.828C603.969 121.668 602.477 120.04 601.424 117.945C600.382 115.838 599.861 113.37 599.861 110.541C599.861 107.748 600.382 105.286 601.424 103.155C602.477 101.024 603.945 99.361 605.827 98.1655C607.721 96.9699 609.935 96.3722 612.468 96.3722C614.007 96.3722 615.498 96.6267 616.942 97.1357C618.386 97.6446 619.683 98.4437 620.831 99.5327C621.979 100.622 622.885 102.036 623.547 103.776C624.21 105.504 624.542 107.606 624.542 110.08V111.962H602.862V107.984H619.339C619.339 106.588 619.055 105.351 618.487 104.273C617.919 103.184 617.12 102.326 616.09 101.699C615.072 101.071 613.876 100.758 612.503 100.758C611.012 100.758 609.71 101.125 608.597 101.859C607.496 102.581 606.644 103.528 606.04 104.7C605.448 105.86 605.153 107.12 605.153 108.482V111.589C605.153 113.412 605.472 114.962 606.111 116.241C606.762 117.519 607.668 118.496 608.828 119.17C609.988 119.833 611.343 120.165 612.894 120.165C613.9 120.165 614.818 120.023 615.646 119.739C616.475 119.443 617.191 119.005 617.795 118.425C618.398 117.845 618.86 117.129 619.18 116.276L624.204 117.182C623.802 118.661 623.08 119.958 622.038 121.07C621.008 122.171 619.712 123.029 618.15 123.645C616.599 124.249 614.829 124.55 612.841 124.55ZM630.432 124V96.7273H635.564V101.06H635.848C636.345 99.5919 637.221 98.4377 638.475 97.5973C639.742 96.745 641.174 96.3189 642.772 96.3189C643.104 96.3189 643.494 96.3307 643.944 96.3544C644.406 96.3781 644.767 96.4077 645.027 96.4432V101.521C644.814 101.462 644.435 101.397 643.891 101.326C643.346 101.243 642.802 101.202 642.257 101.202C641.003 101.202 639.884 101.468 638.902 102.001C637.931 102.522 637.162 103.25 636.593 104.185C636.025 105.108 635.741 106.161 635.741 107.345V124H630.432ZM660.08 134.795C657.914 134.795 656.049 134.511 654.487 133.943C652.936 133.375 651.669 132.623 650.687 131.688C649.704 130.753 648.971 129.729 648.485 128.616L653.048 126.734C653.368 127.255 653.794 127.806 654.327 128.386C654.871 128.978 655.605 129.481 656.529 129.895C657.464 130.309 658.665 130.516 660.133 130.516C662.145 130.516 663.808 130.025 665.122 129.043C666.436 128.072 667.093 126.521 667.093 124.391V119.028H666.756C666.436 119.608 665.975 120.254 665.371 120.964C664.779 121.674 663.962 122.29 662.921 122.81C661.879 123.331 660.524 123.592 658.855 123.592C656.7 123.592 654.759 123.089 653.031 122.082C651.314 121.064 649.953 119.567 648.947 117.59C647.953 115.602 647.455 113.157 647.455 110.257C647.455 107.357 647.947 104.871 648.929 102.8C649.923 100.728 651.285 99.142 653.013 98.0412C654.741 96.9285 656.7 96.3722 658.89 96.3722C660.583 96.3722 661.95 96.6562 662.992 97.2244C664.033 97.7808 664.844 98.4318 665.424 99.1776C666.016 99.9233 666.472 100.58 666.791 101.148H667.182V96.7273H672.384V124.604C672.384 126.947 671.84 128.871 670.751 130.374C669.662 131.878 668.188 132.99 666.33 133.712C664.483 134.434 662.4 134.795 660.08 134.795ZM660.026 119.188C661.553 119.188 662.844 118.833 663.897 118.123C664.963 117.401 665.767 116.371 666.312 115.033C666.868 113.684 667.146 112.068 667.146 110.186C667.146 108.351 666.874 106.736 666.33 105.339C665.785 103.942 664.986 102.853 663.933 102.072C662.879 101.279 661.577 100.882 660.026 100.882C658.428 100.882 657.097 101.296 656.031 102.125C654.966 102.942 654.161 104.054 653.617 105.463C653.084 106.872 652.818 108.446 652.818 110.186C652.818 111.973 653.09 113.542 653.634 114.891C654.179 116.241 654.984 117.294 656.049 118.052C657.126 118.809 658.452 119.188 660.026 119.188ZM682.86 134.227C682.067 134.227 681.345 134.162 680.694 134.032C680.043 133.914 679.558 133.783 679.238 133.641L680.517 129.291C681.487 129.552 682.351 129.664 683.109 129.629C683.866 129.593 684.535 129.309 685.115 128.776C685.707 128.244 686.228 127.374 686.678 126.166L687.335 124.355L677.356 96.7273H683.038L689.945 117.892H690.229L697.136 96.7273H702.835L691.596 127.64C691.075 129.06 690.412 130.262 689.607 131.244C688.802 132.239 687.844 132.984 686.731 133.482C685.618 133.979 684.328 134.227 682.86 134.227Z" fill="white"/>
<path fill-rule="evenodd" clip-rule="evenodd" d="M145 72.5C145 32.5235 112.477 0 72.5 0C32.5271 0 0 32.5235 0 72.5C0 112.611 32.5271 145 72.5 145C112.477 145 145 112.611 145 72.5ZM141.545 72.5C141.545 110.664 110.664 141.542 72.5 141.542C34.3396 141.542 3.42563 110.664 3.42563 72.5C3.42563 34.336 34.3396 3.422 72.5 3.422C110.664 3.422 141.545 34.539 141.545 72.5ZM137.148 72.5C137.148 49.5755 125.465 25.8789 100.391 18.2917C95.1925 16.6822 90.7954 15.6745 85.724 15.6745C74.1131 15.6745 73.7107 22.2865 68.2732 22.2865C65.2862 22.2865 63.2708 20.1042 63.2708 17.487C63.2708 12.8905 68.7083 9.2655 77.3357 9.2655C85.3905 9.2655 91.6001 11.2774 92.7746 11.8501L92.974 11.2774C90.7954 10.44 83.1756 7.81913 72.5362 7.81913C49.4087 7.81913 25.9115 19.7019 18.328 44.5766C16.7149 49.7749 15.6745 54.2409 15.6745 59.2434C15.6745 70.9231 22.2865 71.4596 22.2865 76.8971C22.3026 77.535 22.19 78.1696 21.9554 78.763C21.7208 79.3565 21.369 79.8965 20.921 80.3509C20.473 80.8053 19.938 81.1648 19.348 81.4078C18.758 81.6509 18.1251 81.7725 17.487 81.7655C12.8905 81.7655 9.2655 76.4948 9.2655 67.6643C9.2655 59.6458 11.2774 53.3999 11.6471 52.2254L11.078 52.026C10.44 54.4439 7.82275 61.8933 7.82275 72.5326C7.82275 95.8269 19.7055 119.324 44.5766 126.944C49.8111 128.553 54.2409 129.525 59.2434 129.525C70.9231 129.525 71.2602 122.71 76.6977 122.71C79.5506 122.71 81.7655 124.928 81.7655 127.712C81.7655 132.146 76.4948 135.771 67.6679 135.771C59.6457 135.771 53.2041 133.755 52.2254 133.353L52.026 133.958C54.2409 134.93 61.8932 137.181 72.5362 137.181C95.6275 137.181 119.324 125.497 126.741 100.423C128.354 95.4245 129.326 90.828 129.326 85.9596C129.326 74.1421 122.714 73.7071 122.714 68.3059C122.714 65.3189 124.729 63.3034 127.513 63.3034C132.146 63.3034 135.771 68.7409 135.771 77.5677C135.771 85.4231 133.755 91.6328 133.353 93.0103L133.958 93.2096C134.73 90.7917 137.148 83.3424 137.148 72.5ZM112.814 91.7669C112.814 100.793 105.027 110.262 93.5468 110.262C79.7174 110.262 72.6667 98.5783 72.6667 88.1419C72.6667 73.4751 82.6717 67.2619 86.9021 65.0506C86.0689 64.3942 85.3823 63.5706 84.8866 62.6328C80.0182 66.0547 75.6574 69.078 66.3919 74.3125C65.9895 80.7251 65.4204 87.7395 63.7746 92.6042C60.349 102.841 53.3346 110.258 44.1054 110.258C36.3189 110.258 32.4909 104.621 32.4909 98.5782C32.4909 94.1811 35.0755 88.5443 39.7409 84.3139C45.5807 79.0794 51.9934 75.8894 60.8203 71.2566C61.0233 70.0821 61.2226 68.875 61.4256 67.4323C59.2108 69.4441 56.0207 70.2851 53.3709 70.2851C49.1731 70.2851 45.7149 66.6601 44.9427 62.8684C39.3059 62.4624 35.0755 58.435 34.8761 52.026C34.8761 47.4259 36.6886 43.3985 39.7409 43.3985C40.9154 43.3985 41.354 44.3736 41.354 45.211C41.354 45.9831 40.3136 48.6366 40.3136 51.185C40.3136 53.8385 41.5534 57.2279 44.7434 57.2279C44.7434 46.7879 52.3957 33.3283 61.4256 33.3283C67.3996 33.3283 68.2406 37.7616 68.2406 39.7735C68.2406 49.2384 58.8084 59.6457 51.1524 62.2304C51.3554 63.0677 52.1927 65.2826 54.6106 65.2826C57.5976 65.2826 61.2226 62.4297 63.0351 60.2149C63.8073 56.0534 66.8631 50.0105 70.8905 50.0105C72.5 50.0105 73.2721 51.185 73.2721 52.6314C73.2721 55.6184 70.0821 59.4464 67.6352 62.0274C67.2709 64.0214 67.0793 66.0432 67.0625 68.0703C74.0805 63.8399 77.7055 61.6576 82.9037 57.8333C82.505 56.4195 82.505 54.7774 82.505 53.2005C82.505 43.8009 88.7473 33.3283 96.9688 33.3283C101.634 33.3283 103.987 36.5871 103.987 40.2121C103.987 47.0271 98.1432 52.9975 89.958 59.276C90.5924 60.8855 91.5675 62.263 93.1444 63.1004C93.3438 62.7016 95.9646 62.263 98.1469 62.263C100.561 62.263 103.983 62.901 103.983 65.3189C103.983 68.1029 100.159 68.7409 97.1681 68.7409C95.5586 68.9439 92.9414 68.3385 92.9414 68.3385C88.5443 69.513 80.0871 74.5807 80.0871 87.406C80.0871 96.0625 85.5246 104.085 93.9818 104.085C100.394 104.085 105.596 99.2851 105.799 91.8321C105.799 87.0326 103.784 81.9649 98.9843 81.9649C96.5664 81.9649 94.3841 83.7774 94.3841 86.3946C94.1848 90.422 97.1718 90.828 97.1718 93.4126C97.1718 95.2251 95.7943 96.0625 94.3841 96.0625C90.3604 96.0625 87.3045 92.0351 87.3045 87.0362C87.3045 80.9934 92.5716 75.9909 99.3866 75.9909C108.246 75.8894 112.814 83.5417 112.814 91.7669ZM98.0091 41.151C98.0091 40.1759 97.8098 38.9361 96.5664 38.9361C93.5794 38.9361 88.7799 45.3814 88.7799 53.6029C94.7539 48.3684 98.0091 43.935 98.0091 41.151ZM62.4334 40.31C62.4334 39.3385 61.8606 38.9325 61.0196 38.9325C56.7929 38.9325 50.8189 49.9779 50.8189 56.5899C57.4309 52.9649 62.4334 44.7724 62.4334 40.3136V40.31ZM60.0481 77.9013C51.0219 82.302 39.5415 90.1537 39.5415 98.7812C39.5415 101.971 41.151 103.983 44.138 103.983C52.9649 103.983 58.4024 89.9544 60.0518 77.9049L60.0481 77.9013Z" fill="white"/>
</svg>
