<svg width="86" height="86" viewBox="0 0 86 86" fill="none" xmlns="http://www.w3.org/2000/svg">
<path d="M52.6171 31.7843C52.6171 26.9028 55.9196 22.1573 57.727 23.0596C59.7802 24.0891 56.1885 28.69 52.6171 31.7843ZM30.1157 33.5685C30.1157 29.6414 33.9936 22.1718 36.3649 22.9584C39.1614 23.8895 34.0457 31.4228 30.1157 33.5685ZM26.1885 61.6628C24.4043 61.7438 23.2157 60.6015 23.2157 58.6987C23.2157 53.5801 30.3094 48.6958 35.668 46.0729C34.7166 53.2157 32.3048 61.3823 26.1885 61.6628ZM58.9242 44.9971C54.8814 44.9971 51.7814 47.9757 51.7814 51.5442C51.7814 54.5228 53.5656 56.8999 55.9485 56.8999C56.7843 56.8999 57.6113 56.4257 57.6113 55.3528C57.6113 53.8057 55.561 53.4297 55.7201 51.1134C55.8213 49.5865 57.2585 48.5656 58.6842 48.5656C61.5413 48.5656 62.8774 51.3331 62.8774 54.1903C62.7559 58.5946 59.5171 61.6599 55.7085 61.6599C50.7085 61.6599 47.4986 56.897 47.4986 51.7756C47.4986 44.1585 52.4957 41.1828 55.1128 40.4685C55.1388 40.4685 61.9607 41.6859 61.7467 38.6784C61.6541 37.3597 59.6877 36.8537 58.262 36.7929C56.6802 36.7293 55.0925 37.299 55.0925 37.299C54.2597 36.8797 53.6842 36.0613 53.3314 35.1128C58.2099 31.4199 61.6628 27.8514 61.6628 23.8028C61.6628 21.6599 60.2342 19.7542 57.4957 19.7542C52.6171 19.7542 48.9242 25.9427 48.9242 31.5385C48.9242 32.4899 48.9242 33.4442 49.1643 34.277C46.07 36.5385 43.7681 37.941 39.6009 40.4425C39.6009 39.919 39.7108 38.5801 40.0607 36.8334C41.4893 35.2863 43.45 32.9699 43.45 31.1828C43.45 30.3499 42.9757 29.6356 42.0214 29.6356C39.6414 29.6356 37.8571 33.2042 37.38 35.7056C36.3071 37.0156 34.1671 38.6842 32.38 38.6842C30.9514 38.6842 30.4772 37.3713 30.3557 36.897C34.8814 35.347 40.4743 29.1585 40.4743 23.5628C40.4743 22.3713 39.9971 19.7513 36.4286 19.7513C31.07 19.7513 26.5471 27.727 26.5471 33.9184C24.6414 33.9184 23.93 31.8942 23.93 30.347C23.93 28.7999 24.5257 27.2499 24.5257 26.7756C24.5257 26.3013 24.2857 25.7027 23.5714 25.7027C21.7843 25.7027 20.7143 28.0827 20.7143 30.8213C20.8357 34.6298 23.3343 37.0127 26.6686 37.2499C27.1457 39.5113 29.17 41.6541 31.6686 41.6541C33.2186 41.6541 35.1215 41.1799 36.4315 39.9884C36.31 40.8242 36.1943 41.5356 36.0729 42.2499C30.8357 44.9884 27.0272 46.8942 23.5743 49.9855C20.8386 52.487 19.2886 55.8184 19.2886 58.4413C19.2886 62.0127 21.55 65.3412 26.1914 65.3412C31.6686 65.3412 35.8328 60.9398 37.8571 54.867C38.8114 52.0098 39.1932 47.8542 39.4303 44.0428C44.9075 40.9485 47.5043 39.1556 50.3557 37.1313C50.7143 37.727 51.0758 38.2042 51.5471 38.5599C49.0486 39.8699 43.0972 43.5599 43.0972 52.247C43.0972 58.4384 47.2643 65.3412 55.4771 65.3412C62.2614 65.3412 66.9057 59.7513 66.9057 54.3927C66.9057 49.5113 64.1671 44.9884 58.9271 44.9884L58.9242 44.9971ZM79.3898 55.2198C79.3696 55.2574 79.3002 55.3123 79.17 55.266C79.0688 55.2285 79.037 55.1764 79.0399 55.1128C79.0457 55.0434 80.48 50.8097 80.4714 45.9485C80.454 40.7085 78.3256 37.4957 75.5928 37.4957C73.9242 37.4957 72.7357 38.6871 72.7357 40.4714C72.7357 43.6871 76.6628 43.9242 76.6628 50.9485C76.6628 53.8057 76.0671 56.5385 75.1157 59.52C70.7114 74.3985 56.6628 81.3013 42.9757 81.3013C36.6657 81.3013 32.1804 80.0058 30.8444 79.4072C30.7895 79.3811 30.7461 79.2741 30.7866 79.17C30.8184 79.0862 30.9109 79.0254 30.9601 79.0486C31.5038 79.2626 35.3528 80.4714 40.1128 80.4714C45.3499 80.4714 48.4471 78.3314 48.4471 75.7056C48.4471 74.0428 47.1371 72.7328 45.4685 72.7328C42.2556 72.7328 42.0156 76.7785 35.1128 76.7785C32.1371 76.7785 29.52 76.1856 26.4228 75.2313C11.6628 70.7085 4.62695 56.7785 4.63852 42.9699C4.6443 36.2464 6.52689 30.8907 6.5587 30.8386C6.58184 30.8039 6.6657 30.7663 6.76981 30.8039C6.87681 30.8386 6.90573 30.9312 6.89416 30.9572C6.72065 31.5153 5.47137 35.3528 5.47137 40.1128C5.47137 45.3528 7.61423 48.4471 10.3499 48.4471C11.897 48.4471 13.2071 47.2556 13.2071 45.5928C13.2071 42.3771 9.27993 42.0214 9.27993 35.1157C9.27993 32.1371 9.87565 29.52 10.8271 26.4257C15.3557 11.6657 29.2828 4.74841 42.9757 4.64141C49.3378 4.59225 54.9075 6.49508 55.1157 6.66281C55.1533 6.69462 55.1937 6.77848 55.1533 6.87681C55.1099 6.9867 55.0347 7.00116 54.9971 6.99537C54.9306 6.9867 51.31 5.47426 45.83 5.47426C40.7143 5.47426 37.5014 7.61423 37.5014 10.3557C37.5014 11.9028 38.69 13.2099 40.4743 13.2099C43.69 13.2099 43.93 9.28282 50.83 9.28282C53.8086 9.28282 56.4228 9.87854 59.52 10.83C74.4043 15.3528 81.177 29.4014 81.3042 42.9699C81.3707 49.9219 79.4101 55.1851 79.3927 55.2198H79.3898ZM42.9757 2.0214C20.3586 2.0214 2.0214 20.3557 2.0214 42.9728C2.0214 65.5899 20.3557 83.9213 42.9757 83.9213C65.5957 83.9213 83.9213 65.5928 83.9213 42.9728C83.9213 20.3528 65.5899 2.0214 42.9757 2.0214ZM42.9757 85.9456C19.2828 85.9456 0 66.7814 0 42.9728C0 19.1643 19.2828 0 42.9757 0C66.6686 0 85.9485 19.2828 85.9485 42.9728C85.9485 66.6628 66.6599 85.9456 42.9757 85.9456Z" fill="white"/>
</svg>
