 <svg width="294" height="63" viewBox="0 0 294 63" fill="none" xmlns="http://www.w3.org/2000/svg">
<path d="M31.3263 48.7306H37.2911V47.0385H23.1729V48.7372H29.2161V61.7121H31.3263V48.7306ZM47.9402 61.7186H49.9916V55.793C49.9916 52.35 47.9336 50.8408 44.9937 50.8408C43.1383 50.8408 41.5115 51.566 40.5315 53.0883V47.0385H38.4866V61.7186H40.5315V56.8775C40.5315 53.5717 42.5895 52.2651 44.6801 52.2651C46.6139 52.2651 47.9402 53.3104 47.9402 55.8845V61.7186ZM58.4259 52.2585C56.3353 52.2585 54.8523 53.2908 54.5321 55.5905H62.0649C62.0127 53.1797 60.2095 52.2585 58.4259 52.2585ZM54.4472 57.0147C54.6563 59.1315 55.8845 60.6864 58.3083 60.6864C60.0854 60.6864 61.3528 60.033 61.8167 58.5565H63.9857C63.5806 61.111 61.0457 62.0649 58.4325 62.0649C54.6106 62.0649 52.4154 59.9742 52.4154 56.6619C52.4154 52.8727 54.6889 50.8408 58.4847 50.8408C62.1825 50.8408 64.2339 52.84 64.2339 56.3941V57.0147H54.4472ZM143.005 52.7551C143.364 52.7551 143.841 52.7943 144.533 52.9184V51.076C144.246 51.0564 143.965 51.0172 143.272 51.0172C141.326 51.0172 140.039 52.0691 139.228 53.3235L139.163 51.2328H137.203C137.275 52.0691 137.314 52.8073 137.314 53.6175V61.7186H139.359V56.6488C139.359 54.0682 140.555 52.7551 143.005 52.7551ZM205.076 52.7551C205.455 52.7551 205.913 52.7943 206.612 52.9184V51.076C206.331 51.0564 206.043 51.0172 205.351 51.0172C204.535 51.013 203.732 51.2239 203.023 51.6288C202.314 52.0337 201.724 52.6182 201.313 53.3235L201.248 51.2328H199.281C199.347 52.0691 199.379 52.8073 199.379 53.6175V61.7186H201.431V56.6488C201.431 54.0682 202.626 52.7551 205.076 52.7551ZM106.001 60.1898L102.662 51.2394H100.349L104.531 61.7121H107.288L110.809 52.8727L114.507 61.7121H117.146L121.295 51.2328H119.139L115.84 60.1898L112.181 51.2394H109.529L106.001 60.1898ZM78.9401 48.6718H74.7524V54.4929H79.0839C81.7625 54.4929 82.7163 53.3953 82.7163 51.4354C82.7163 49.7563 81.7755 48.6718 78.9401 48.6718ZM79.2668 56.1197H74.7524V61.7186L72.6291 61.7317V47.0581L78.9205 47.0385C83.4546 47.032 84.9964 48.9332 84.9964 51.4158C84.9964 54.1532 83.1867 56.1197 79.2603 56.1197M92.6141 52.2585C89.7656 52.2585 88.2761 53.9898 88.2761 56.4594C88.2761 58.8244 89.7656 60.6537 92.6141 60.6537C95.4756 60.6537 96.9913 58.8244 96.9913 56.4594C96.9913 53.9898 95.5736 52.2585 92.6141 52.2585ZM92.6141 62.0649C88.3871 62.0649 86.094 60.033 86.094 56.4594C86.094 53.0883 88.3871 50.8408 92.6141 50.8408C96.9521 50.8408 99.1473 52.9184 99.1473 56.4594C99.1473 60.033 96.8737 62.0649 92.6141 62.0649ZM128.553 52.2585C126.463 52.2585 124.934 53.2908 124.646 55.5905H132.173C132.133 53.1797 130.343 52.2585 128.553 52.2585ZM124.548 57.0147C124.764 59.1315 126.005 60.6864 128.436 60.6864C130.2 60.6864 131.454 60.033 131.931 58.5565H134.074C133.682 61.111 131.147 62.0649 128.521 62.0649C124.699 62.0649 122.51 59.9742 122.51 56.6619C122.51 52.8727 124.79 50.8408 128.599 50.8408C132.297 50.8408 134.315 52.84 134.315 56.3941V57.0147H124.548ZM213.792 52.2585C211.701 52.2585 210.166 53.2908 209.872 55.5905H217.405C217.365 53.1797 215.575 52.2585 213.792 52.2585ZM209.78 57.0147C209.996 59.1315 211.224 60.6864 213.668 60.6864C215.431 60.6864 216.686 60.033 217.15 58.5565H219.306C218.914 61.111 216.379 62.0649 213.752 62.0649C209.924 62.0649 207.742 59.9742 207.742 56.6619C207.742 52.8727 210.029 50.8408 213.831 50.8408C217.529 50.8408 219.554 52.84 219.554 56.3941V57.0147H209.78ZM171.359 48.1949C171.914 48.1949 172.6 48.2929 173.613 48.4824V46.9928C172.74 46.8288 171.854 46.7479 170.967 46.7511C167.968 46.7511 167.014 48.319 167.014 50.8016V51.2328H164.44V52.6701H167.014V61.7121H169.065V52.6636H173.279V51.2328H169.065V50.3966C169.065 48.7502 169.751 48.1949 171.359 48.1949ZM156.894 52.2585C154.059 52.2585 152.53 53.9898 152.53 56.4594C152.53 58.8113 154.059 60.6537 156.894 60.6537C159.73 60.6537 161.284 58.8179 161.284 56.4594C161.284 53.9898 159.854 52.2585 156.894 52.2585ZM156.894 62.0649C152.648 62.0649 150.361 60.033 150.361 56.4594C150.361 53.0883 152.674 50.8408 156.894 50.8408C161.252 50.8408 163.427 52.9184 163.427 56.4594C163.427 60.033 161.128 62.0649 156.894 62.0649ZM246.242 53.4607C245.967 52.6869 245.457 52.0185 244.784 51.5488C244.11 51.0791 243.307 50.8315 242.485 50.8408C241.69 50.8499 240.91 51.0654 240.223 51.4662C239.536 51.867 238.965 52.4395 238.566 53.1275L238.461 51.2328H236.527C236.58 52.0287 236.602 52.8264 236.592 53.624V61.7121H238.65V56.6488C238.65 53.5325 240.434 52.2585 242.028 52.2585C243.74 52.2585 244.602 53.4607 244.602 56.3287V61.7186H246.634V56.6554C246.634 52.9707 248.96 52.2651 249.966 52.2651C252.03 52.2651 252.612 53.6632 252.612 56.4333V61.7251H254.663V55.6362C254.663 52.1736 252.814 50.8474 250.286 50.8474C249.431 50.8453 248.593 51.091 247.874 51.5548C247.155 52.0185 246.586 52.6805 246.235 53.4607M262.451 62.0649C266.397 62.0649 268.265 60.9412 268.265 58.7133C268.265 57.1584 267.351 56.3941 265.397 55.9955L261.935 55.3161C260.386 54.996 259.713 54.6628 259.713 53.8657C259.713 52.8073 260.935 52.2716 262.758 52.2716C264.234 52.2716 265.606 52.6309 265.75 53.9572H267.867C267.867 51.4746 265.123 50.8408 262.817 50.8408C260.073 50.8408 257.675 51.8143 257.675 54.1074C257.675 55.7603 258.91 56.4594 260.51 56.786L263.797 57.4851C264.973 57.7268 266.116 57.9686 266.116 58.9224C266.116 60.033 264.973 60.6864 262.699 60.6864C260.844 60.6864 259.498 60.1637 259.315 58.7133H257.113C257.277 61.1502 259.517 62.0649 262.451 62.0649ZM187.587 48.6718H184.04V60.0657H187.907C192.879 60.0657 194.061 57.3675 194.061 54.3688C194.061 50.6122 192.801 48.6718 187.587 48.6718ZM188.188 61.7121H181.884V47.0385H188.09C193.761 47.0385 196.283 49.6518 196.283 54.3557C196.283 59.0792 193.356 61.7121 188.188 61.7121ZM231.013 57.08C231.013 59.6084 229.595 60.6864 227.061 60.6864C225.094 60.6864 224.264 59.8566 224.264 58.6807C224.264 56.3418 228.387 56.5835 229.948 56.5835H231.013V57.08ZM231.209 61.7186H233.11C233.046 61.0455 233.018 60.3694 233.025 59.6933V54.5452C233.025 52.0168 230.961 50.8408 228.008 50.8408C225.702 50.8408 223.082 51.4811 222.834 53.9898H225.009C225.127 52.938 226.166 52.2585 228.014 52.2585C229.818 52.2585 231.02 52.9184 231.02 54.7934V55.1854H229.837C227.479 55.1854 222.095 55.009 222.095 58.6807C222.095 60.7125 223.892 62.0649 226.538 62.0649C228.576 62.0649 229.896 61.8231 231.072 60.2552L231.203 61.7121" fill="white"/>
<path d="M252.423 18.502H265.358L258.825 8.23835L252.423 18.502ZM231.059 34.5867V30.1245L235.567 29.6019C237.129 29.4059 237.788 27.9816 237.984 27.6419L249.235 9.34899C250.149 7.91169 249.254 6.64425 248.065 6.52012L242.166 5.81454V1.31317H267.789C269.226 1.31317 270.141 2.28662 270.729 3.14246L285.709 26.0086C286.885 27.8444 287.8 29.2752 289.303 29.4843L294 30.0069V34.5867H265.182V30.0723L268.841 29.6149C270.605 29.4189 272.042 28.635 270.605 26.479L269.233 24.3884H248.764L247.196 26.9363C246.216 28.5043 247.196 29.4189 248.699 29.6149L252.371 30.0723V34.5867H231.059ZM206.867 28.1776H198.354V7.65036H206.867C214.968 7.65036 218.365 9.55152 218.365 17.914C218.365 26.3418 214.968 28.1776 206.867 28.1776ZM211.963 1.31317H178.99V5.82107L183.119 6.24573C184.667 6.47439 185.275 7.5785 185.275 9.08113V27.0017C185.275 28.2495 184.765 29.4189 183.393 29.6149L178.97 30.1833V34.5736L211.963 34.5867C227.12 34.5867 233.666 27.1977 233.666 17.4567C233.666 8.70221 227.12 1.3197 211.956 1.3197M0 34.5867H26.6685V30.1311L22.1018 29.6084C21.0369 29.4843 20.0046 28.8244 20.0046 26.6031V21.2459H40.5319V26.3418C40.5319 27.8444 40.2706 29.2817 38.5066 29.4843L33.8615 30.0069V34.5867H60.5365V30.0069L55.8326 29.4843C54.9114 29.3536 53.8661 28.635 53.8661 26.7403V9.40779C53.8661 7.65036 54.5129 6.46786 55.8914 6.33719L60.53 5.81454V1.31317H33.868V5.75574L38.5066 6.34373C40.0746 6.53972 40.5319 7.78103 40.5319 9.40779V14.5755H20.0112V9.34899C20.0112 7.3825 20.7951 6.47439 22.1671 6.34373L26.675 5.82107V1.31317H0.0653319V5.82107L4.5079 6.34373C6.27186 6.53972 6.72918 7.84636 6.67039 9.55152V26.4071C6.67039 28.3018 6.1412 29.4189 4.4491 29.6084L0 30.1311V34.5867ZM89.0408 6.40906C81.4623 6.40906 77.1374 9.21833 77.1374 17.8421C77.1374 26.6031 81.4558 29.4189 89.0408 29.4189C96.6259 29.4189 100.938 26.6031 100.938 17.8421C100.938 9.21833 96.6259 6.40906 89.0408 6.40906ZM61.8432 17.7768C61.8432 7.3237 70.271 0 89.0996 0C107.804 0 116.225 7.33024 116.225 17.7833C116.225 28.4978 107.798 35.7692 89.0996 35.7692C70.2775 35.7692 61.8432 28.5043 61.8432 17.7833M117.722 34.5867H139.033V30.1311L134.46 29.6084C133.146 29.4843 132.362 28.3736 132.362 26.871V9.93698L150.08 33.2735C150.668 34.064 151.772 34.5867 152.824 34.5867H169.562V9.35553C169.562 8.16648 169.876 6.54625 171.588 6.33719L176.233 5.81454V1.31317H154.915V5.75574L159.554 6.33719C161.187 6.53319 161.579 7.91169 161.579 9.47966V25.9564L143.991 2.74394C143.687 2.29979 143.278 1.93711 142.801 1.68766C142.324 1.43822 141.793 1.30963 141.254 1.31317H117.722V5.82107L122.164 6.33719C123.732 6.57892 124.32 7.3629 124.32 9.55152V26.4071C124.32 28.4128 123.784 29.3667 122.099 29.6084L117.722 30.1311V34.5867Z" fill="white"/>
</svg>
