<svg width="120" height="60" viewBox="0 0 291 60" fill="none" xmlns="http://www.w3.org/2000/svg">
<path fill-rule="evenodd" clip-rule="evenodd" d="M195.975 41.1514C195.572 41.1436 195.172 41.2194 194.797 41.3744C194.422 41.5294 194.081 41.7606 193.793 42.0543C193.506 42.3481 193.277 42.6985 193.121 43.0852C192.965 43.4719 192.885 43.8871 192.885 44.3065C192.885 44.7258 192.965 45.141 193.121 45.5277C193.277 45.9144 193.506 46.2648 193.793 46.5586C194.081 46.8523 194.422 47.0835 194.797 47.2385C195.172 47.3935 195.572 47.4693 195.975 47.4615C196.374 47.461 196.768 47.3788 197.136 47.2196C197.504 47.0603 197.838 46.8271 198.119 46.5334C198.4 46.2396 198.622 45.8911 198.773 45.5077C198.925 45.1243 199.002 44.7137 199 44.2993C199 43.8859 198.922 43.4766 198.77 43.0947C198.618 42.7128 198.396 42.3658 198.115 42.0735C197.834 41.7812 197.5 41.5493 197.133 41.3911C196.766 41.2329 196.373 41.1514 195.975 41.1514ZM195.975 47.082C195.624 47.0824 195.276 47.0107 194.952 46.8709C194.628 46.7311 194.333 46.526 194.085 46.2674C193.837 46.0089 193.641 45.7019 193.508 45.3641C193.374 45.0263 193.306 44.6645 193.307 44.2993C193.308 43.9353 193.377 43.5748 193.511 43.2387C193.645 42.9025 193.842 42.5972 194.09 42.3401C194.337 42.0831 194.631 41.8794 194.955 41.7408C195.279 41.6021 195.625 41.5312 195.975 41.5321C196.325 41.5321 196.67 41.6036 196.993 41.7427C197.316 41.8818 197.609 42.0856 197.856 42.3426C198.103 42.5996 198.299 42.9047 198.432 43.2404C198.566 43.5761 198.635 43.9359 198.634 44.2993C198.636 44.6638 198.569 45.0251 198.436 45.3624C198.303 45.6997 198.107 46.0064 197.86 46.265C197.613 46.5235 197.32 46.7287 196.996 46.8689C196.673 47.0091 196.326 47.0815 195.975 47.082Z" fill="white"/>
<path fill-rule="evenodd" clip-rule="evenodd" d="M197.531 43.4728C197.531 43.1751 197.405 42.862 197.151 42.7126C196.896 42.5555 196.611 42.54 196.325 42.54H194.847V46.0663H195.261V44.4398H196.024L196.992 46.0663H197.484L196.46 44.4398C197.064 44.4221 197.531 44.1665 197.531 43.4728ZM195.896 44.1001H195.26V42.8532H196.228C196.649 42.8532 197.111 42.9195 197.111 43.465C197.112 44.1831 196.372 44.1001 195.896 44.1001ZM178.195 26.4247L184.397 19.5371C184.756 19.0314 184.935 18.6774 184.935 18.3742C184.935 17.8686 184.517 17.6661 183.202 17.6661H181.638V13.3178H198.573V17.6661H196.348C193.778 17.6661 193.301 18.0699 189.715 22.7723L179.905 33.7925V40.5175C179.905 42.238 180.74 42.8432 183.131 42.8432H186.835V47.0388H163.114V42.8432H166.817C169.206 42.8432 170.043 42.238 170.043 40.5175V33.7925L158.489 20.4964C156.579 18.1717 156.843 17.6661 151.527 17.6661V13.3178H172.979V17.6661H171.452C169.898 17.6661 169.239 17.9693 169.239 18.5756C169.239 19.0823 169.717 19.4862 170.016 19.89L175.862 26.5176C176.556 27.2689 177.404 27.3663 178.195 26.4247ZM34.2612 13.3167H39.436V25.4499H34.6569C34.2335 23.0246 32.7742 22.0808 31.4435 20.8084C29.0428 18.5136 23.8435 16.6028 19.4707 16.6028C13.8268 16.6028 9.06363 18.424 9.06363 21.1016C9.06363 28.5347 41.3411 22.6196 41.3411 36.6737C41.3411 44.0039 34.4271 48.0988 22.0108 48.0988C17.7124 48.0988 11.208 46.7113 7.37025 44.5914C6.16723 43.8689 5.65666 45.2752 5.43116 47.0377H0.125515V34.4995H4.92485C5.98321 37.685 7.44152 38.3411 8.78282 39.6058C11.1102 41.8308 16.6498 43.4495 21.73 43.3975C29.3895 43.319 32.0232 41.5774 32.0232 39.0492C32.0232 36.5221 29.4183 35.9147 21.0247 34.5504L13.8981 33.3366C5.85557 32.072 0 30.2021 0 23.5291C0 16.6028 7.40748 12.2545 19.1197 12.2545C24.0552 12.2545 28.1844 12.9405 32.1477 15.2706C33.2454 16.0131 34.275 16.1016 34.2612 13.3167ZM135.251 33.631L135.354 20.1456C135.354 18.3764 134.469 17.7701 131.94 17.7701H128.969V13.5745H147.871V17.7701H145.407C142.877 17.7701 141.992 18.3775 141.992 20.1456V47.2944L134.594 47.2336L110.636 23.6342V40.773C110.636 42.4925 111.521 43.1486 114.049 43.1486H117.338V47.2944H97.7077V43.1486H100.96C103.489 43.1486 104.374 42.4914 104.374 40.773V20.1456C104.374 18.3764 103.489 17.7701 100.96 17.7701H97.7077V13.5745H114.68L135.251 33.631ZM71.9379 12C56.874 12 47.4445 18.9274 47.4445 30.0483C47.4445 40.97 56.7432 47.8443 71.4784 47.8443C87.1294 47.8443 96.2334 41.0707 96.2334 29.4929C96.2345 19.079 86.4103 12 71.9379 12ZM71.5954 43.4473C63.2572 43.4473 58.4642 38.4418 58.4642 29.796C58.4642 21.3539 63.4657 16.3483 72.0123 16.3483C80.2112 16.3483 85.0042 21.4557 85.0042 30.1512C85.0042 38.6443 80.141 43.4473 71.5954 43.4473Z" fill="white"/>
<path d="M214.156 48V11.6861H221.834V41.6699H237.402V48H214.156ZM250.164 11.6861V48H242.487V11.6861H250.164ZM263.042 11.6861L271.819 39.2761H272.156L280.95 11.6861H289.461L276.943 48H267.049L254.513 11.6861H263.042Z" fill="white"/>
</svg>
