<svg width="120" height="56" viewBox="0 0 276 56" fill="none" xmlns="http://www.w3.org/2000/svg">
<path d="M0 12.0006V21.4058H9.13637V44.1582H22.1022V21.4058H30.9703V12.0006H0ZM39.9949 12.0006L27.7233 44.1582H40.129L46.6684 25.0565L53.3414 44.1582H65.8819L53.4762 12.0006H39.9949ZM63.0155 12.0006V21.4058H72.1748V44.1582H85.1183V21.4058H94.0082V12.0006H63.0155ZM102.899 12.0006L90.7394 44.1582H103.145L109.684 25.0565L116.358 44.1582H128.92L116.492 12L102.899 12.0006Z" fill="white"/>
<path d="M147.924 45V11.3562H170.594V17.2209H155.037V25.2376H169.428V31.1022H155.037V39.1353H170.66V45H147.924ZM176.249 45V11.3562H183.363V39.1353H197.786V45H176.249ZM209.166 11.3562L215.951 22.8227H216.214L223.031 11.3562H231.064L220.797 28.1781L231.294 45H223.113L216.214 33.5171H215.951L209.051 45H200.903L211.433 28.1781L201.1 11.3562H209.166ZM253.817 21.0321C253.685 19.7069 253.121 18.6775 252.125 17.9437C251.128 17.2099 249.775 16.843 248.067 16.843C246.906 16.843 245.926 17.0073 245.126 17.3359C244.327 17.6535 243.714 18.097 243.286 18.6665C242.87 19.236 242.662 19.8822 242.662 20.605C242.64 21.2073 242.766 21.733 243.04 22.182C243.325 22.631 243.714 23.0198 244.206 23.3484C244.699 23.666 245.269 23.9453 245.915 24.1862C246.561 24.4162 247.251 24.6133 247.985 24.7776L251.007 25.5004C252.475 25.829 253.822 26.267 255.049 26.8146C256.275 27.3622 257.338 28.0357 258.236 28.8352C259.134 29.6347 259.829 30.5765 260.322 31.6608C260.826 32.745 261.083 33.988 261.094 35.3898C261.083 37.4488 260.557 39.2339 259.517 40.7452C258.488 42.2456 256.998 43.412 255.049 44.2443C253.11 45.0657 250.772 45.4764 248.034 45.4764C245.318 45.4764 242.952 45.0602 240.937 44.2279C238.933 43.3956 237.367 42.1635 236.239 40.5317C235.122 38.8889 234.536 36.8574 234.481 34.437H241.364C241.441 35.5651 241.764 36.5069 242.334 37.2626C242.914 38.0073 243.686 38.5713 244.65 38.9546C245.625 39.327 246.725 39.5132 247.952 39.5132C249.157 39.5132 250.203 39.3379 251.09 38.9875C251.988 38.637 252.683 38.1497 253.176 37.5254C253.669 36.9012 253.915 36.1838 253.915 35.3734C253.915 34.6177 253.691 33.9825 253.242 33.4678C252.804 32.9531 252.157 32.515 251.303 32.1536C250.46 31.7922 249.425 31.4636 248.198 31.1679L244.535 30.248C241.698 29.558 239.459 28.4793 237.816 27.0117C236.173 25.5442 235.357 23.5674 235.368 21.0814C235.357 19.0443 235.9 17.2647 236.995 15.7424C238.101 14.2201 239.618 13.0318 241.545 12.1776C243.473 11.3234 245.663 10.8962 248.116 10.8962C250.613 10.8962 252.793 11.3234 254.654 12.1776C256.527 13.0318 257.984 14.2201 259.024 15.7424C260.065 17.2647 260.601 19.0279 260.634 21.0321H253.817ZM272.992 11.3562V45H265.879V11.3562H272.992Z" fill="white"/>
</svg>
