<svg width="200" height="62" viewBox="0 0 349 62" fill="none" xmlns="http://www.w3.org/2000/svg">
<path d="M297.632 14C294.244 14 290.971 14.2735 288.697 14.5601V46.5606H294.519V33.3046H297.498C298.211 33.3046 298.924 33.3155 299.49 33.5959C301.457 34.1835 302.456 35.6018 303.163 38.9251C304.016 42.9564 304.899 45.6938 305.313 46.5612H311.269C310.696 45.2667 309.837 41.6659 308.828 37.649C307.982 34.4713 306.712 32.1426 304.305 31.289V31.1548C307.419 30.1545 310.15 27.2743 310.15 23.0928C310.15 20.3462 309.118 18.025 307.418 16.5763C305.59 14.9912 303.038 14.137 299.49 14.0011H297.632V14ZM328.087 14C321.138 14 316.733 18.0244 316.733 23.1817C316.733 27.902 320.143 30.7547 325.378 32.6098C329.5 34.0339 331.065 35.4659 331.065 37.8949C331.065 40.4701 328.945 42.3286 325.243 42.3286C322.27 42.3286 319.448 41.3277 317.607 40.2012L316.33 45.038C318.031 46.1862 321.574 47.1878 324.974 47.1878C333.197 47.1878 337 42.6193 337 37.4689C337 32.8959 334.34 30.0553 328.804 27.9066C324.563 26.3146 322.69 25.1727 322.69 22.7339C322.69 20.7395 324.25 18.7255 327.93 18.7255C330.904 18.7255 333.201 19.7443 334.335 20.2929L335.746 15.5903C334.032 14.7544 331.495 14.0006 328.087 14.0006V14ZM211.304 14.0453C202.445 14.1714 196.345 21.0909 196.345 30.863C196.345 40.2127 202.079 47.1213 211.058 47.1213H211.304C220.038 46.9877 226.42 40.8645 226.42 30.3253C226.42 21.084 220.935 14.0453 211.55 14.0453H211.304H211.304ZM268.475 14.0453C259.601 14.1714 253.494 21.0909 253.494 30.863C253.494 40.2127 259.214 47.1213 268.206 47.1213H268.476C277.181 46.9877 283.547 40.8645 283.547 30.3253C283.547 21.084 278.101 14.0453 268.745 14.0453H268.475ZM12 14.4707V23.8759H21.1364V46.6282H34.1022V23.8759H42.9703V14.4707H12ZM51.9949 14.4707L39.7233 46.6282H52.129L58.6685 27.5265L65.3414 46.6282H77.8819L65.4762 14.4707H51.9949ZM75.0155 14.4707V23.8759H84.1748V46.6282H97.1183V23.8759H106.008V14.4707H75.0155ZM114.899 14.4707L102.739 46.6282H115.145L121.684 27.5265L128.358 46.6282H140.92L128.492 14.4701L114.899 14.4707ZM158.768 14.4707L156.775 46.6282H162.261L162.933 33.7965C163.098 29.2756 163.269 24.1104 163.426 19.9575H163.583C164.416 23.9499 165.59 28.4467 166.919 32.4527L171.085 46.2917H175.586L180.423 32.2962C181.753 28.297 183.077 23.9493 184.252 19.957C184.252 24.2892 184.57 29.2831 184.745 33.4606L185.26 46.6282H191.105L189.269 14.4707H181.587L177.086 27.28C175.925 31.1181 174.769 35.1053 173.929 38.6115H173.75C172.93 34.9517 171.929 31.1296 170.771 27.4589L166.584 14.4707H158.768ZM227.965 14.5601V19.5092H237.214V46.5835H243.058V19.5092H252.172V14.5601H227.965ZM298.214 18.479H299.49C302.464 18.8918 304.305 20.4763 304.305 23.6747C304.305 26.3897 302.465 28.4169 299.49 28.8474C298.924 28.8474 298.49 28.9821 297.923 28.9821H294.519V18.7697C295.079 18.6195 296.381 18.4785 298.214 18.4785V18.479ZM211.304 18.7255C217.168 18.7255 220.149 24.4698 220.149 30.46C220.149 37.2201 217.035 42.4186 211.304 42.4186C205.713 42.4186 202.436 37.0814 202.436 30.7065C202.436 24.3339 205.446 18.7255 211.304 18.7255ZM268.475 18.7255C274.318 18.7255 277.298 24.4698 277.298 30.46C277.298 37.2201 274.186 42.4186 268.475 42.4186C262.855 42.4186 259.607 37.0814 259.607 30.7065C259.607 24.3339 262.603 18.7255 268.475 18.7255Z" fill="white"/>
</svg>
