<svg width="40" height="40" viewBox="0 0 80 78" fill="none" xmlns="http://www.w3.org/2000/svg">
<path d="M14.1638 0H65.8198C73.6516 0 79.9836 6.33203 79.9836 14.1638V63.8202C79.9836 71.652 73.6516 77.984 65.8198 77.984H14.1638C6.33203 77.984 0 71.652 0 63.8202V14.1638C0 6.33203 6.33203 0 14.1638 0Z" fill="#470137"/>
<path d="M42.0572 20.4963L32.0593 36.9929L42.7238 54.4893C42.7904 54.6226 42.8237 54.7559 42.7904 54.8892C42.7571 55.0225 42.6238 54.9226 42.4238 54.9559H34.7921C34.2588 54.9559 33.8922 54.9226 33.659 54.5893C32.9591 53.1896 32.2259 51.8232 31.5261 50.4235C30.8262 49.0571 30.0597 47.6574 29.2599 46.2243C28.46 44.7913 27.6602 43.3583 26.8603 41.8919H26.7937C26.0938 43.3249 25.3273 44.758 24.5608 46.191C23.7943 47.6241 23.0278 49.0571 22.2946 50.4568C21.5281 51.8565 20.7616 53.2896 19.9951 54.6559C19.8618 54.9892 19.5952 55.0225 19.2286 55.0225H11.8968C11.7634 55.0225 11.6635 55.0892 11.6635 54.9226C11.6301 54.7892 11.6635 54.6559 11.7301 54.556L22.0947 37.5594L11.9967 20.463C11.8968 20.3296 11.8634 20.1963 11.9301 20.1297C11.9967 20.0297 12.13 19.9964 12.2633 19.9964H19.8285C19.9951 19.9964 20.1617 20.0297 20.295 20.063C20.4283 20.1297 20.5283 20.2297 20.6283 20.363C21.2615 21.796 21.9947 23.2291 22.7612 24.6621C23.561 26.0951 24.3275 27.4948 25.1607 28.8946C25.9605 30.2943 26.6937 31.694 27.3936 33.127H27.4602C28.1601 31.6607 28.8933 30.2276 29.6264 28.8279C30.3596 27.4282 31.1261 26.0285 31.8926 24.6288C32.6592 23.2291 33.3923 21.796 34.1255 20.4296C34.1589 20.2963 34.2255 20.163 34.3255 20.0964C34.4588 20.0297 34.5921 19.9964 34.7587 20.0297H41.7906C41.9573 19.9964 42.1239 20.0964 42.1572 20.263C42.1905 20.2963 42.1239 20.4296 42.0572 20.4963ZM57.4541 55.6557C54.9879 55.6891 52.5217 55.1892 50.2889 54.156C48.1893 53.1896 46.4563 51.5899 45.2566 49.6236C44.0235 47.5907 43.4236 45.0579 43.4236 42.0252C43.3903 39.559 44.0235 37.1262 45.2566 34.9933C46.523 32.8271 48.3559 31.0275 50.5555 29.8277C52.8883 28.528 55.6878 27.8948 58.9871 27.8948C59.1537 27.8948 59.387 27.8948 59.6869 27.9281C59.9869 27.9614 60.3202 27.9614 60.7201 27.9947V17.4636C60.7201 17.2303 60.82 17.097 61.0533 17.097H67.8186C67.9852 17.0636 68.1186 17.197 68.1519 17.3303V49.1237C68.1519 49.7236 68.1852 50.3901 68.2185 51.1233C68.2852 51.8232 68.3185 52.4897 68.3518 53.0563C68.3518 53.2896 68.2519 53.4895 68.0186 53.5895C66.2856 54.3227 64.4526 54.8559 62.5864 55.1892C60.8867 55.4891 59.187 55.6557 57.4541 55.6557ZM60.7201 48.9904V34.3268C60.4201 34.2601 60.1202 34.1935 59.8203 34.1601C59.4537 34.1268 59.0871 34.0935 58.7205 34.0935C57.4207 34.0935 56.121 34.3601 54.9546 34.96C53.8215 35.5265 52.855 36.3597 52.1218 37.4261C51.3886 38.4926 51.0221 39.9256 51.0221 41.6586C50.9887 42.825 51.1887 43.9915 51.5886 45.0912C51.9219 45.9911 52.4218 46.7909 53.0883 47.4574C53.7215 48.0573 54.488 48.5239 55.3545 48.7905C56.2543 49.0904 57.1875 49.2237 58.1206 49.2237C58.6205 49.2237 59.0871 49.1904 59.5203 49.1571C59.9536 49.1904 60.3202 49.1237 60.7201 48.9904Z" fill="#FF61F6"/>
</svg>
