<svg width="40" height="40" viewBox="0 0 68 68" fill="none" xmlns="http://www.w3.org/2000/svg">
<path d="M34 1.61597C51.8726 1.61597 66.384 16.1597 66.384 34C66.384 51.8403 51.8403 66.384 34 66.384C16.1597 66.384 1.61597 51.8726 1.61597 34C1.61597 16.1274 16.1597 1.61597 34 1.61597ZM34 0C15.2224 0 0 15.2224 0 34C0 52.7776 15.2224 68 34 68C52.7776 68 68 52.7776 68 34C68 15.2224 52.8099 0 34 0Z" fill="white"/>
<path d="M31.6412 13.6387C31.6412 13.6387 23.9815 15.8041 17.0975 23.1083C10.2134 30.4124 9.34082 35.6159 9.34082 39.4942C10.8598 36.9086 20.2325 22.6558 22.4302 29.4429V45.6672C22.4302 45.6672 22.3009 47.8649 18.9397 46.9923C19.9416 48.8668 25.1127 53.4885 34.453 54.4257C36.5861 52.2927 39.3655 49.2223 39.3655 49.2223L44.0195 53.1653C44.0195 53.1653 52.3903 47.7356 55.6868 39.8497C52.6165 41.8535 48.8998 46.5075 46.9606 43.2432V23.4961C46.9606 23.4961 51.9378 16.0303 52.7135 15.6748C50.742 16.0303 43.7933 18.325 40.1412 23.0436C39.107 21.9124 36.2306 21.8801 36.2306 21.8801C36.2306 21.8801 38.4929 23.7546 38.5252 25.4676C38.5576 27.1805 38.5252 41.4657 38.5252 43.114C36.9739 44.6976 35.3256 45.5379 34.2591 45.5379C31.7705 45.5379 31.0595 44.6653 30.3807 43.7927V23.0436C30.3807 23.0436 29.1526 24.0778 28.183 22.3972C27.2134 20.7166 27.1811 17.4524 31.6412 13.6387Z" fill="white"/>
</svg>
