<svg width="212" height="24" viewBox="0 0 212 24" fill="none" xmlns="http://www.w3.org/2000/svg">
<path d="M6.904 2.392C8.60267 2.392 10.04 2.68133 11.216 3.26C12.392 3.82 13.288 4.62267 13.904 5.668C14.52 6.69467 14.828 7.91733 14.828 9.336C14.828 10.176 14.6973 11.0253 14.436 11.884C14.1933 12.724 13.792 13.4893 13.232 14.18C12.6907 14.8707 11.9533 15.4307 11.02 15.86C10.1053 16.2707 8.976 16.476 7.632 16.476H4.72V23H0.66V2.392H6.904ZM7.604 12.528C8.22 12.528 8.73333 12.4253 9.144 12.22C9.55467 11.996 9.872 11.7253 10.096 11.408C10.3387 11.072 10.5067 10.7267 10.6 10.372C10.712 10.0173 10.768 9.70933 10.768 9.448C10.768 9.24267 10.7307 8.972 10.656 8.636C10.6 8.28133 10.4693 7.92667 10.264 7.572C10.0587 7.21733 9.74133 6.91867 9.312 6.676C8.90133 6.43333 8.34133 6.312 7.632 6.312H4.72V12.528H7.604ZM21.3448 10.764L21.7088 14.124L21.6248 13.62C21.9794 12.892 22.4648 12.276 23.0808 11.772C23.6968 11.2493 24.3034 10.848 24.9008 10.568C25.5168 10.288 25.9834 10.148 26.3008 10.148L26.1048 14.068C25.1901 13.956 24.4061 14.1053 23.7528 14.516C23.0994 14.9267 22.5954 15.468 22.2408 16.14C21.8861 16.812 21.7088 17.5027 21.7088 18.212V23H17.8168V10.764H21.3448ZM34.043 23.336C32.9043 23.336 31.8683 23.112 30.935 22.664C30.0203 22.1973 29.2923 21.488 28.751 20.536C28.2097 19.584 27.939 18.3707 27.939 16.896C27.939 15.5147 28.219 14.32 28.779 13.312C29.339 12.304 30.0763 11.5293 30.991 10.988C31.9057 10.428 32.8763 10.148 33.903 10.148C35.1163 10.148 36.031 10.3533 36.647 10.764C37.2817 11.156 37.8043 11.5947 38.215 12.08L38.047 12.556L38.411 10.764H42.051V23H38.131V20.34L38.439 21.18C38.4017 21.18 38.2897 21.292 38.103 21.516C37.9163 21.7213 37.6363 21.9733 37.263 22.272C36.9083 22.552 36.4603 22.7947 35.919 23C35.3963 23.224 34.771 23.336 34.043 23.336ZM35.163 20.144C35.6297 20.144 36.0497 20.0787 36.423 19.948C36.7963 19.7987 37.123 19.5933 37.403 19.332C37.683 19.052 37.9257 18.7067 38.131 18.296V15.3C37.9817 14.8893 37.7577 14.544 37.459 14.264C37.1603 13.9653 36.8057 13.7413 36.395 13.592C35.9843 13.424 35.527 13.34 35.023 13.34C34.463 13.34 33.9403 13.4893 33.455 13.788C32.9883 14.068 32.615 14.46 32.335 14.964C32.055 15.468 31.915 16.0467 31.915 16.7C31.915 17.3533 32.0643 17.9413 32.363 18.464C32.6617 18.9867 33.0537 19.3973 33.539 19.696C34.043 19.9947 34.5843 20.144 35.163 20.144ZM51.6902 23.252L44.3542 10.764H49.0022L53.1742 19.22L50.7662 19.136L54.3782 10.764H58.7462L51.8022 23.252H51.6902ZM66.6571 23.336C65.1638 23.336 63.8944 23.056 62.8491 22.496C61.8224 21.936 61.0384 21.1613 60.4971 20.172C59.9558 19.1827 59.6851 18.044 59.6851 16.756C59.6851 15.524 60.0024 14.4133 60.6371 13.424C61.2718 12.4347 62.1211 11.6507 63.1851 11.072C64.2491 10.4747 65.4344 10.176 66.7411 10.176C68.4958 10.176 69.9331 10.6893 71.0531 11.716C72.1918 12.724 72.9291 14.1893 73.2651 16.112L63.7451 19.136L62.8771 17.008L69.7651 14.684L68.9531 15.048C68.8038 14.5627 68.5331 14.1427 68.1411 13.788C67.7678 13.4147 67.1984 13.228 66.4331 13.228C65.8544 13.228 65.3411 13.368 64.8931 13.648C64.4638 13.9093 64.1278 14.292 63.8851 14.796C63.6611 15.2813 63.5491 15.86 63.5491 16.532C63.5491 17.2973 63.6891 17.9413 63.9691 18.464C64.2491 18.968 64.6318 19.3507 65.1171 19.612C65.6024 19.8733 66.1438 20.004 66.7411 20.004C67.1704 20.004 67.5811 19.9293 67.9731 19.78C68.3838 19.6307 68.7851 19.4347 69.1771 19.192L70.9131 22.104C70.2598 22.4773 69.5504 22.776 68.7851 23C68.0384 23.224 67.3291 23.336 66.6571 23.336ZM82.1337 23.336C80.6403 23.336 79.371 23.056 78.3257 22.496C77.299 21.936 76.515 21.1613 75.9737 20.172C75.4323 19.1827 75.1617 18.044 75.1617 16.756C75.1617 15.524 75.479 14.4133 76.1137 13.424C76.7483 12.4347 77.5977 11.6507 78.6617 11.072C79.7257 10.4747 80.911 10.176 82.2177 10.176C83.9723 10.176 85.4097 10.6893 86.5297 11.716C87.6683 12.724 88.4057 14.1893 88.7417 16.112L79.2217 19.136L78.3537 17.008L85.2417 14.684L84.4297 15.048C84.2803 14.5627 84.0097 14.1427 83.6177 13.788C83.2443 13.4147 82.675 13.228 81.9097 13.228C81.331 13.228 80.8177 13.368 80.3697 13.648C79.9403 13.9093 79.6043 14.292 79.3617 14.796C79.1377 15.2813 79.0257 15.86 79.0257 16.532C79.0257 17.2973 79.1657 17.9413 79.4457 18.464C79.7257 18.968 80.1083 19.3507 80.5937 19.612C81.079 19.8733 81.6203 20.004 82.2177 20.004C82.647 20.004 83.0577 19.9293 83.4497 19.78C83.8603 19.6307 84.2617 19.4347 84.6537 19.192L86.3897 22.104C85.7363 22.4773 85.027 22.776 84.2617 23C83.515 23.224 82.8057 23.336 82.1337 23.336ZM95.1462 10.764L95.4542 12.948L95.3982 12.752C95.8276 11.9867 96.4342 11.3707 97.2182 10.904C98.0022 10.4187 98.9636 10.176 100.102 10.176C101.26 10.176 102.221 10.5213 102.986 11.212C103.77 11.884 104.172 12.7613 104.19 13.844V23H100.27V15.3C100.252 14.7587 100.102 14.3293 99.8222 14.012C99.5609 13.676 99.1129 13.508 98.4782 13.508C97.8809 13.508 97.3582 13.704 96.9102 14.096C96.4622 14.488 96.1169 15.02 95.8742 15.692C95.6316 16.364 95.5102 17.1387 95.5102 18.016V23H91.5902V10.764H95.1462ZM117.965 23V1.552H117.993L129.445 17.792L127.709 17.4L139.133 1.552H139.189V23H135.129V10.708L135.381 12.808L128.409 22.72H128.353L121.185 12.808L121.885 10.876V23H117.965ZM149.023 23.336C147.885 23.336 146.849 23.112 145.915 22.664C145.001 22.1973 144.273 21.488 143.731 20.536C143.19 19.584 142.919 18.3707 142.919 16.896C142.919 15.5147 143.199 14.32 143.759 13.312C144.319 12.304 145.057 11.5293 145.971 10.988C146.886 10.428 147.857 10.148 148.883 10.148C150.097 10.148 151.011 10.3533 151.627 10.764C152.262 11.156 152.785 11.5947 153.195 12.08L153.027 12.556L153.391 10.764H157.031V23H153.111V20.34L153.419 21.18C153.382 21.18 153.27 21.292 153.083 21.516C152.897 21.7213 152.617 21.9733 152.243 22.272C151.889 22.552 151.441 22.7947 150.899 23C150.377 23.224 149.751 23.336 149.023 23.336ZM150.143 20.144C150.61 20.144 151.03 20.0787 151.403 19.948C151.777 19.7987 152.103 19.5933 152.383 19.332C152.663 19.052 152.906 18.7067 153.111 18.296V15.3C152.962 14.8893 152.738 14.544 152.439 14.264C152.141 13.9653 151.786 13.7413 151.375 13.592C150.965 13.424 150.507 13.34 150.003 13.34C149.443 13.34 148.921 13.4893 148.435 13.788C147.969 14.068 147.595 14.46 147.315 14.964C147.035 15.468 146.895 16.0467 146.895 16.7C146.895 17.3533 147.045 17.9413 147.343 18.464C147.642 18.9867 148.034 19.3973 148.519 19.696C149.023 19.9947 149.565 20.144 150.143 20.144ZM164.627 10.764L164.935 12.948L164.879 12.752C165.308 11.9867 165.915 11.3707 166.699 10.904C167.483 10.4187 168.444 10.176 169.583 10.176C170.74 10.176 171.701 10.5213 172.467 11.212C173.251 11.884 173.652 12.7613 173.671 13.844V23H169.751V15.3C169.732 14.7587 169.583 14.3293 169.303 14.012C169.041 13.676 168.593 13.508 167.959 13.508C167.361 13.508 166.839 13.704 166.391 14.096C165.943 14.488 165.597 15.02 165.355 15.692C165.112 16.364 164.991 17.1387 164.991 18.016V23H161.071V10.764H164.627ZM188.084 21.908C187.542 22.3373 186.861 22.6827 186.04 22.944C185.237 23.2053 184.444 23.336 183.66 23.336C182.26 23.336 181.037 23.084 179.992 22.58C178.965 22.0573 178.162 21.32 177.584 20.368C177.024 19.3973 176.744 18.2307 176.744 16.868C176.744 15.5053 177.052 14.348 177.668 13.396C178.284 12.4253 179.086 11.688 180.076 11.184C181.084 10.68 182.138 10.428 183.24 10.428C184.341 10.428 185.293 10.5773 186.096 10.876C186.917 11.1747 187.617 11.5667 188.196 12.052L186.292 14.572C186.03 14.3667 185.666 14.1613 185.2 13.956C184.752 13.732 184.22 13.62 183.604 13.62C183.062 13.62 182.568 13.76 182.12 14.04C181.672 14.32 181.317 14.7027 181.056 15.188C180.794 15.6733 180.664 16.2333 180.664 16.868C180.664 17.4653 180.804 18.016 181.084 18.52C181.364 19.024 181.746 19.4253 182.232 19.724C182.736 20.004 183.324 20.144 183.996 20.144C184.425 20.144 184.817 20.088 185.172 19.976C185.545 19.8453 185.862 19.668 186.124 19.444L188.084 21.908ZM191.094 23V0.907999H194.93V13.228L194.902 12.752C195.331 11.9867 195.938 11.3707 196.722 10.904C197.506 10.4187 198.467 10.176 199.606 10.176C200.763 10.176 201.725 10.5213 202.49 11.212C203.274 11.884 203.675 12.7613 203.694 13.844V23H199.774V15.3C199.755 14.7587 199.606 14.3293 199.326 14.012C199.065 13.676 198.617 13.508 197.982 13.508C197.385 13.508 196.862 13.704 196.414 14.096C195.966 14.488 195.621 15.02 195.378 15.692C195.135 16.364 195.014 17.1387 195.014 18.016V23H191.094ZM207.719 10.764H211.639V23H207.719V10.764ZM207.635 6.424C207.635 5.84533 207.859 5.36933 208.307 4.996C208.774 4.62267 209.268 4.436 209.791 4.436C210.314 4.436 210.79 4.62267 211.219 4.996C211.667 5.36933 211.891 5.84533 211.891 6.424C211.891 7.00267 211.667 7.47867 211.219 7.852C210.79 8.20667 210.314 8.384 209.791 8.384C209.268 8.384 208.774 8.20667 208.307 7.852C207.859 7.47867 207.635 7.00267 207.635 6.424Z" fill="white"/>
</svg>
